<?xml version="1.0" encoding="UTF-8" standalone="no"?>
<!DOCTYPE svg PUBLIC "-//W3C//DTD SVG 1.1//EN" "http://www.w3.org/Graphics/SVG/1.1/DTD/svg11.dtd">
<svg xmlns="http://www.w3.org/2000/svg"  version="1.1" width="714.0" height="389.0" viewBox="-6.0 -13.0 708.0 376.0">
	<desc>LSD Plot - Sim2</desc>
	<polyline points="223.0,6.0 223.0,304.0" fill="none" stroke="#33393b" />
	<polyline points="373.0,6.0 373.0,304.0" fill="none" stroke="#33393b" />
	<polyline points="523.0,6.0 523.0,304.0" fill="none" stroke="#33393b" />
	<polyline points="74.0,80.0 672.0,80.0" fill="none" stroke="#33393b" />
	<polyline points="74.0,155.0 672.0,155.0" fill="none" stroke="#33393b" />
	<polyline points="74.0,230.0 672.0,230.0" fill="none" stroke="#33393b" />
	<text x="5.0" y="351.0" font-family="Nimbus Sans" font-size="12pt">X_1</text>
	<text x="38.0" y="351.0" fill="#ff6347" font-family="Nimbus Sans" font-size="12pt">X_2</text>
	<text x="71.0" y="351.0" fill="#008000" font-family="Nimbus Sans" font-size="12pt">X_3</text>
	<text x="104.0" y="351.0" fill="#eeee00" font-family="Nimbus Sans" font-size="12pt">X_4</text>
	<text x="137.0" y="351.0" fill="#ffc0cb" font-family="Nimbus Sans" font-size="12pt">X_5</text>
	<text x="170.0" y="351.0" fill="#4682b4" font-family="Nimbus Sans" font-size="12pt">X_6</text>
	<text x="203.0" y="351.0" fill="#00bfff" font-family="Nimbus Sans" font-size="12pt">X_7</text>
	<text x="236.0" y="351.0" fill="#4876ff" font-family="Nimbus Sans" font-size="12pt">X_8</text>
	<text x="269.0" y="351.0" fill="#aeeeee" font-family="Nimbus Sans" font-size="12pt">X_9</text>
	<text x="302.0" y="351.0" fill="#00ffff" font-family="Nimbus Sans" font-size="12pt">X_10</text>
	<polyline points="73.0,233.0 79.0,252.0 85.0,262.0 91.0,269.0 97.0,274.0 103.0,278.0 109.0,281.0 115.0,283.0 121.0,285.0 127.0,287.0 133.0,288.0 139.0,290.0 145.0,291.0 151.0,292.0 157.0,293.0 163.0,293.0 169.0,294.0 176.0,295.0 182.0,295.0 188.0,296.0 194.0,296.0 200.0,297.0 206.0,297.0 212.0,297.0 218.0,298.0 224.0,298.0 230.0,298.0 236.0,299.0 242.0,299.0 248.0,299.0 254.0,300.0 260.0,300.0 266.0,300.0 273.0,300.0 279.0,300.0 285.0,301.0 291.0,301.0 297.0,301.0 303.0,301.0 309.0,301.0 315.0,301.0 321.0,301.0 327.0,302.0 333.0,302.0 339.0,302.0 345.0,302.0 351.0,302.0 357.0,302.0 363.0,302.0 369.0,302.0 376.0,303.0 382.0,303.0 388.0,303.0 394.0,303.0 400.0,303.0 406.0,303.0 412.0,303.0 418.0,303.0 424.0,303.0 430.0,303.0 436.0,303.0 442.0,303.0 448.0,303.0 454.0,304.0 460.0,304.0 466.0,304.0 473.0,304.0 479.0,304.0 485.0,304.0 491.0,304.0 497.0,304.0 503.0,304.0 509.0,304.0 515.0,304.0 521.0,304.0 527.0,304.0 533.0,304.0 539.0,304.0 545.0,304.0 551.0,304.0 557.0,304.0 563.0,304.0 569.0,304.0 576.0,304.0 582.0,305.0 588.0,305.0 594.0,305.0 600.0,305.0 606.0,305.0 612.0,305.0 618.0,305.0 624.0,305.0 630.0,305.0 636.0,305.0 642.0,305.0 648.0,305.0 654.0,305.0 660.0,305.0 666.0,305.0 672.0,305.0" fill="none" stroke="#000000" />
	<polyline points="73.0,195.0 79.0,202.0 85.0,205.0 91.0,207.0 97.0,207.0 103.0,208.0 109.0,208.0 115.0,208.0 121.0,208.0 127.0,208.0 133.0,208.0 139.0,208.0 145.0,208.0 151.0,208.0 157.0,208.0 163.0,208.0 169.0,208.0 176.0,208.0 182.0,208.0 188.0,208.0 194.0,208.0 200.0,208.0 206.0,208.0 212.0,208.0 218.0,208.0 224.0,208.0 230.0,208.0 236.0,208.0 242.0,208.0 248.0,208.0 254.0,208.0 260.0,208.0 266.0,208.0 273.0,208.0 279.0,208.0 285.0,208.0 291.0,208.0 297.0,208.0 303.0,208.0 309.0,208.0 315.0,208.0 321.0,208.0 327.0,208.0 333.0,208.0 339.0,208.0 345.0,208.0 351.0,208.0 357.0,208.0 363.0,208.0 369.0,208.0 376.0,208.0 382.0,208.0 388.0,208.0 394.0,208.0 400.0,208.0 406.0,208.0 412.0,208.0 418.0,208.0 424.0,208.0 430.0,208.0 436.0,208.0 442.0,208.0 448.0,208.0 454.0,208.0 460.0,208.0 466.0,208.0 473.0,208.0 479.0,208.0 485.0,208.0 491.0,208.0 497.0,208.0 503.0,208.0 509.0,208.0 515.0,208.0 521.0,208.0 527.0,208.0 533.0,208.0 539.0,208.0 545.0,208.0 551.0,208.0 557.0,208.0 563.0,208.0 569.0,208.0 576.0,208.0 582.0,208.0 588.0,208.0 594.0,208.0 600.0,208.0 606.0,208.0 612.0,208.0 618.0,208.0 624.0,208.0 630.0,208.0 636.0,208.0 642.0,208.0 648.0,208.0 654.0,208.0 660.0,208.0 666.0,208.0 672.0,208.0" fill="none" stroke="#ff6347" />
	<polyline points="73.0,158.0 79.0,158.0 85.0,158.0 91.0,158.0 97.0,158.0 103.0,158.0 109.0,158.0 115.0,158.0 121.0,158.0 127.0,158.0 133.0,158.0 139.0,158.0 145.0,158.0 151.0,158.0 157.0,158.0 163.0,158.0 169.0,158.0 176.0,158.0 182.0,158.0 188.0,158.0 194.0,158.0 200.0,158.0 206.0,158.0 212.0,158.0 218.0,158.0 224.0,158.0 230.0,158.0 236.0,158.0 242.0,158.0 248.0,158.0 254.0,158.0 260.0,158.0 266.0,158.0 273.0,158.0 279.0,158.0 285.0,158.0 291.0,158.0 297.0,158.0 303.0,158.0 309.0,158.0 315.0,158.0 321.0,158.0 327.0,158.0 333.0,158.0 339.0,158.0 345.0,158.0 351.0,158.0 357.0,158.0 363.0,158.0 369.0,158.0 376.0,158.0 382.0,158.0 388.0,158.0 394.0,158.0 400.0,158.0 406.0,158.0 412.0,158.0 418.0,158.0 424.0,158.0 430.0,158.0 436.0,158.0 442.0,158.0 448.0,158.0 454.0,158.0 460.0,158.0 466.0,158.0 473.0,158.0 479.0,158.0 485.0,158.0 491.0,158.0 497.0,158.0 503.0,158.0 509.0,158.0 515.0,158.0 521.0,158.0 527.0,158.0 533.0,158.0 539.0,158.0 545.0,158.0 551.0,158.0 557.0,158.0 563.0,158.0 569.0,158.0 576.0,158.0 582.0,158.0 588.0,158.0 594.0,158.0 600.0,158.0 606.0,158.0 612.0,158.0 618.0,158.0 624.0,158.0 630.0,158.0 636.0,158.0 642.0,158.0 648.0,158.0 654.0,158.0 660.0,158.0 666.0,158.0 672.0,158.0" fill="none" stroke="#008000" />
	<polyline points="73.0,120.0 79.0,132.0 85.0,126.0 91.0,129.0 97.0,127.0 103.0,128.0 109.0,128.0 115.0,128.0 121.0,128.0 127.0,128.0 133.0,128.0 139.0,128.0 145.0,128.0 151.0,128.0 157.0,128.0 163.0,128.0 169.0,128.0 176.0,128.0 182.0,128.0 188.0,128.0 194.0,128.0 200.0,128.0 206.0,128.0 212.0,128.0 218.0,128.0 224.0,128.0 230.0,128.0 236.0,128.0 242.0,128.0 248.0,128.0 254.0,128.0 260.0,128.0 266.0,128.0 273.0,128.0 279.0,128.0 285.0,128.0 291.0,128.0 297.0,128.0 303.0,128.0 309.0,128.0 315.0,128.0 321.0,128.0 327.0,128.0 333.0,128.0 339.0,128.0 345.0,128.0 351.0,128.0 357.0,128.0 363.0,128.0 369.0,128.0 376.0,128.0 382.0,128.0 388.0,128.0 394.0,128.0 400.0,128.0 406.0,128.0 412.0,128.0 418.0,128.0 424.0,128.0 430.0,128.0 436.0,128.0 442.0,128.0 448.0,128.0 454.0,128.0 460.0,128.0 466.0,128.0 473.0,128.0 479.0,128.0 485.0,128.0 491.0,128.0 497.0,128.0 503.0,128.0 509.0,128.0 515.0,128.0 521.0,128.0 527.0,128.0 533.0,128.0 539.0,128.0 545.0,128.0 551.0,128.0 557.0,128.0 563.0,128.0 569.0,128.0 576.0,128.0 582.0,128.0 588.0,128.0 594.0,128.0 600.0,128.0 606.0,128.0 612.0,128.0 618.0,128.0 624.0,128.0 630.0,128.0 636.0,128.0 642.0,128.0 648.0,128.0 654.0,128.0 660.0,128.0 666.0,128.0 672.0,128.0" fill="none" stroke="#eeee00" />
	<polyline points="73.0,113.0 79.0,130.0 85.0,119.0 91.0,126.0 97.0,122.0 103.0,124.0 109.0,123.0 115.0,124.0 121.0,123.0 127.0,123.0 133.0,123.0 139.0,123.0 145.0,123.0 151.0,123.0 157.0,123.0 163.0,123.0 169.0,123.0 176.0,123.0 182.0,123.0 188.0,123.0 194.0,123.0 200.0,123.0 206.0,123.0 212.0,123.0 218.0,123.0 224.0,123.0 230.0,123.0 236.0,123.0 242.0,123.0 248.0,123.0 254.0,123.0 260.0,123.0 266.0,123.0 273.0,123.0 279.0,123.0 285.0,123.0 291.0,123.0 297.0,123.0 303.0,123.0 309.0,123.0 315.0,123.0 321.0,123.0 327.0,123.0 333.0,123.0 339.0,123.0 345.0,123.0 351.0,123.0 357.0,123.0 363.0,123.0 369.0,123.0 376.0,123.0 382.0,123.0 388.0,123.0 394.0,123.0 400.0,123.0 406.0,123.0 412.0,123.0 418.0,123.0 424.0,123.0 430.0,123.0 436.0,123.0 442.0,123.0 448.0,123.0 454.0,123.0 460.0,123.0 466.0,123.0 473.0,123.0 479.0,123.0 485.0,123.0 491.0,123.0 497.0,123.0 503.0,123.0 509.0,123.0 515.0,123.0 521.0,123.0 527.0,123.0 533.0,123.0 539.0,123.0 545.0,123.0 551.0,123.0 557.0,123.0 563.0,123.0 569.0,123.0 576.0,123.0 582.0,123.0 588.0,123.0 594.0,123.0 600.0,123.0 606.0,123.0 612.0,123.0 618.0,123.0 624.0,123.0 630.0,123.0 636.0,123.0 642.0,123.0 648.0,123.0 654.0,123.0 660.0,123.0 666.0,123.0 672.0,123.0" fill="none" stroke="#ffc0cb" />
	<polyline points="73.0,98.0 79.0,132.0 85.0,104.0 91.0,125.0 97.0,108.0 103.0,121.0 109.0,111.0 115.0,119.0 121.0,112.0 127.0,117.0 133.0,113.0 139.0,117.0 145.0,114.0 151.0,116.0 157.0,114.0 163.0,116.0 169.0,115.0 176.0,115.0 182.0,115.0 188.0,115.0 194.0,115.0 200.0,115.0 206.0,115.0 212.0,115.0 218.0,115.0 224.0,115.0 230.0,115.0 236.0,115.0 242.0,115.0 248.0,115.0 254.0,115.0 260.0,115.0 266.0,115.0 273.0,115.0 279.0,115.0 285.0,115.0 291.0,115.0 297.0,115.0 303.0,115.0 309.0,115.0 315.0,115.0 321.0,115.0 327.0,115.0 333.0,115.0 339.0,115.0 345.0,115.0 351.0,115.0 357.0,115.0 363.0,115.0 369.0,115.0 376.0,115.0 382.0,115.0 388.0,115.0 394.0,115.0 400.0,115.0 406.0,115.0 412.0,115.0 418.0,115.0 424.0,115.0 430.0,115.0 436.0,115.0 442.0,115.0 448.0,115.0 454.0,115.0 460.0,115.0 466.0,115.0 473.0,115.0 479.0,115.0 485.0,115.0 491.0,115.0 497.0,115.0 503.0,115.0 509.0,115.0 515.0,115.0 521.0,115.0 527.0,115.0 533.0,115.0 539.0,115.0 545.0,115.0 551.0,115.0 557.0,115.0 563.0,115.0 569.0,115.0 576.0,115.0 582.0,115.0 588.0,115.0 594.0,115.0 600.0,115.0 606.0,115.0 612.0,115.0 618.0,115.0 624.0,115.0 630.0,115.0 636.0,115.0 642.0,115.0 648.0,115.0 654.0,115.0 660.0,115.0 666.0,115.0 672.0,115.0" fill="none" stroke="#4682b4" />
	<polyline points="73.0,83.0 79.0,139.0 85.0,86.0 91.0,134.0 97.0,89.0 103.0,131.0 109.0,90.0 115.0,129.0 121.0,91.0 127.0,127.0 133.0,92.0 139.0,126.0 145.0,93.0 151.0,125.0 157.0,94.0 163.0,124.0 169.0,94.0 176.0,123.0 182.0,95.0 188.0,123.0 194.0,95.0 200.0,122.0 206.0,96.0 212.0,121.0 218.0,96.0 224.0,121.0 230.0,97.0 236.0,121.0 242.0,97.0 248.0,120.0 254.0,97.0 260.0,120.0 266.0,97.0 273.0,120.0 279.0,98.0 285.0,119.0 291.0,98.0 297.0,119.0 303.0,98.0 309.0,119.0 315.0,98.0 321.0,118.0 327.0,99.0 333.0,118.0 339.0,99.0 345.0,118.0 351.0,99.0 357.0,118.0 363.0,99.0 369.0,118.0 376.0,99.0 382.0,117.0 388.0,99.0 394.0,117.0 400.0,99.0 406.0,117.0 412.0,100.0 418.0,117.0 424.0,100.0 430.0,117.0 436.0,100.0 442.0,117.0 448.0,100.0 454.0,117.0 460.0,100.0 466.0,116.0 473.0,100.0 479.0,116.0 485.0,100.0 491.0,116.0 497.0,100.0 503.0,116.0 509.0,100.0 515.0,116.0 521.0,100.0 527.0,116.0 533.0,101.0 539.0,116.0 545.0,101.0 551.0,116.0 557.0,101.0 563.0,116.0 569.0,101.0 576.0,116.0 582.0,101.0 588.0,115.0 594.0,101.0 600.0,115.0 606.0,101.0 612.0,115.0 618.0,101.0 624.0,115.0 630.0,101.0 636.0,115.0 642.0,101.0 648.0,115.0 654.0,101.0 660.0,115.0 666.0,101.0 672.0,115.0" fill="none" stroke="#00bfff" />
	<polyline points="73.0,45.0 79.0,193.0 85.0,60.0 91.0,158.0 97.0,45.0 103.0,193.0 109.0,60.0 115.0,158.0 121.0,45.0 127.0,193.0 133.0,60.0 139.0,158.0 145.0,45.0 151.0,193.0 157.0,60.0 163.0,158.0 169.0,45.0 176.0,193.0 182.0,60.0 188.0,158.0 194.0,45.0 200.0,193.0 206.0,60.0 212.0,158.0 218.0,45.0 224.0,193.0 230.0,60.0 236.0,158.0 242.0,45.0 248.0,193.0 254.0,60.0 260.0,158.0 266.0,45.0 273.0,193.0 279.0,60.0 285.0,158.0 291.0,45.0 297.0,193.0 303.0,60.0 309.0,158.0 315.0,45.0 321.0,193.0 327.0,60.0 333.0,158.0 339.0,45.0 345.0,193.0 351.0,60.0 357.0,158.0 363.0,45.0 369.0,193.0 376.0,60.0 382.0,158.0 388.0,45.0 394.0,193.0 400.0,60.0 406.0,158.0 412.0,45.0 418.0,193.0 424.0,60.0 430.0,158.0 436.0,45.0 442.0,193.0 448.0,60.0 454.0,158.0 460.0,45.0 466.0,193.0 473.0,60.0 479.0,158.0 485.0,45.0 491.0,193.0 497.0,60.0 503.0,158.0 509.0,45.0 515.0,193.0 521.0,60.0 527.0,158.0 533.0,45.0 539.0,193.0 545.0,60.0 551.0,158.0 557.0,45.0 563.0,193.0 569.0,60.0 576.0,158.0 582.0,45.0 588.0,193.0 594.0,60.0 600.0,158.0 606.0,45.0 612.0,193.0 618.0,60.0 624.0,158.0 630.0,45.0 636.0,193.0 642.0,60.0 648.0,158.0 654.0,45.0 660.0,193.0 666.0,60.0 672.0,158.0" fill="none" stroke="#4876ff" />
	<polyline points="73.0,30.0 79.0,231.0 85.0,96.0 91.0,78.0 97.0,110.0 103.0,59.0 109.0,152.0 115.0,31.0 121.0,230.0 127.0,94.0 133.0,81.0 139.0,103.0 145.0,67.0 151.0,132.0 157.0,39.0 163.0,206.0 169.0,60.0 176.0,150.0 182.0,31.0 188.0,228.0 194.0,92.0 200.0,84.0 206.0,97.0 212.0,76.0 218.0,113.0 224.0,55.0 230.0,160.0 236.0,31.0 242.0,231.0 248.0,96.0 254.0,78.0 260.0,109.0 266.0,60.0 273.0,149.0 279.0,32.0 285.0,228.0 291.0,90.0 297.0,87.0 303.0,93.0 309.0,83.0 315.0,100.0 321.0,72.0 327.0,122.0 333.0,47.0 339.0,183.0 345.0,38.0 351.0,207.0 357.0,60.0 363.0,148.0 369.0,32.0 376.0,227.0 382.0,90.0 388.0,88.0 394.0,91.0 400.0,86.0 406.0,95.0 412.0,80.0 418.0,105.0 424.0,64.0 430.0,138.0 436.0,35.0 442.0,216.0 448.0,73.0 454.0,120.0 460.0,48.0 466.0,179.0 473.0,36.0 479.0,214.0 485.0,69.0 491.0,127.0 497.0,42.0 503.0,196.0 509.0,49.0 515.0,178.0 521.0,36.0 527.0,215.0 533.0,71.0 539.0,124.0 545.0,45.0 551.0,188.0 557.0,41.0 563.0,198.0 569.0,50.0 576.0,173.0 582.0,33.0 588.0,222.0 594.0,80.0 600.0,104.0 606.0,66.0 612.0,135.0 618.0,37.0 624.0,211.0 630.0,66.0 636.0,135.0 642.0,37.0 648.0,211.0 654.0,65.0 660.0,136.0 666.0,36.0 672.0,213.0" fill="none" stroke="#aeeeee" />
	<polyline points="73.0,9.0 79.0,305.0 85.0,296.0 91.0,263.0 97.0,155.0 103.0,9.0 109.0,304.0 115.0,294.0 121.0,255.0 127.0,134.0 133.0,16.0 139.0,276.0 145.0,195.0 151.0,27.0 157.0,235.0 163.0,88.0 169.0,73.0 176.0,104.0 182.0,47.0 188.0,172.0 194.0,11.0 200.0,294.0 206.0,257.0 212.0,139.0 218.0,14.0 224.0,285.0 230.0,225.0 236.0,68.0 242.0,116.0 248.0,32.0 254.0,219.0 260.0,59.0 266.0,139.0 273.0,14.0 279.0,286.0 285.0,226.0 291.0,71.0 297.0,109.0 303.0,40.0 309.0,194.0 315.0,26.0 321.0,240.0 327.0,100.0 333.0,54.0 339.0,152.0 345.0,9.0 351.0,303.0 357.0,289.0 363.0,239.0 369.0,97.0 376.0,59.0 382.0,139.0 388.0,13.0 394.0,287.0 400.0,231.0 406.0,80.0 412.0,89.0 418.0,72.0 424.0,107.0 430.0,43.0 436.0,183.0 442.0,17.0 448.0,272.0 454.0,183.0 460.0,17.0 466.0,272.0 473.0,183.0 479.0,17.0 485.0,273.0 491.0,186.0 497.0,20.0 503.0,263.0 509.0,156.0 515.0,9.0 521.0,305.0 527.0,296.0 533.0,261.0 539.0,150.0 545.0,10.0 551.0,302.0 557.0,284.0 563.0,219.0 569.0,59.0 576.0,140.0 582.0,13.0 588.0,288.0 594.0,234.0 600.0,85.0 606.0,79.0 612.0,92.0 618.0,66.0 624.0,120.0 630.0,28.0 636.0,235.0 642.0,88.0 648.0,75.0 654.0,101.0 660.0,52.0 666.0,158.0 672.0,9.0" fill="none" stroke="#00ffff" />
	<polyline points="73.0,5.0 673.0,5.0" fill="none" stroke="#b3b3b3" />
	<polyline points="73.0,305.0 673.0,305.0" fill="none" stroke="#b3b3b3" />
	<polyline points="73.0,305.0 73.0,310.0" fill="none" stroke="#b3b3b3" />
	<polyline points="223.0,305.0 223.0,310.0" fill="none" stroke="#b3b3b3" />
	<polyline points="373.0,305.0 373.0,310.0" fill="none" stroke="#b3b3b3" />
	<polyline points="523.0,305.0 523.0,310.0" fill="none" stroke="#b3b3b3" />
	<polyline points="673.0,305.0 673.0,310.0" fill="none" stroke="#b3b3b3" />
	<polyline points="73.0,5.0 73.0,305.0" fill="none" stroke="#b3b3b3" />
	<polyline points="673.0,5.0 673.0,305.0" fill="none" stroke="#b3b3b3" />
	<polyline points="68.0,5.0 73.0,5.0" fill="none" stroke="#b3b3b3" />
	<polyline points="68.0,80.0 73.0,80.0" fill="none" stroke="#b3b3b3" />
	<polyline points="68.0,155.0 73.0,155.0" fill="none" stroke="#b3b3b3" />
	<polyline points="68.0,230.0 73.0,230.0" fill="none" stroke="#b3b3b3" />
	<polyline points="68.0,305.0 73.0,305.0" fill="none" stroke="#b3b3b3" />
	<text x="73.0" y="329.0" fill="#b3b3b3" font-family="Nimbus Sans" font-size="12pt" text-anchor="middle">1</text>
	<text x="223.0" y="329.0" fill="#b3b3b3" font-family="Nimbus Sans" font-size="12pt" text-anchor="middle">25</text>
	<text x="373.0" y="329.0" fill="#b3b3b3" font-family="Nimbus Sans" font-size="12pt" text-anchor="middle">50</text>
	<text x="523.0" y="329.0" fill="#b3b3b3" font-family="Nimbus Sans" font-size="12pt" text-anchor="middle">75</text>
	<text x="673.0" y="329.0" fill="#b3b3b3" font-family="Nimbus Sans" font-size="12pt" text-anchor="middle">100</text>
	<text x="63.0" y="8.0" fill="#b3b3b3" font-family="Nimbus Sans" font-size="12pt" text-anchor="end">1.01</text>
	<text x="63.0" y="83.0" fill="#b3b3b3" font-family="Nimbus Sans" font-size="12pt" text-anchor="end">0.76</text>
	<text x="63.0" y="158.0" fill="#b3b3b3" font-family="Nimbus Sans" font-size="12pt" text-anchor="end">0.51</text>
	<text x="63.0" y="233.0" fill="#b3b3b3" font-family="Nimbus Sans" font-size="12pt" text-anchor="end">0.259</text>
	<text x="63.0" y="308.0" fill="#b3b3b3" font-family="Nimbus Sans" font-size="12pt" text-anchor="end">0</text>
</svg>
