<?xml version="1.0" encoding="UTF-8" standalone="no"?>
<!DOCTYPE svg PUBLIC "-//W3C//DTD SVG 1.1//EN" "http://www.w3.org/Graphics/SVG/1.1/DTD/svg11.dtd">
<svg xmlns="http://www.w3.org/2000/svg"  version="1.1" width="696.0" height="389.0" viewBox="-6.0 -13.0 690.0 376.0">
	<desc>LSD Plot - Sim_MC</desc>
	<polyline points="205.0,6.0 205.0,304.0" fill="none" stroke="#33393b" />
	<polyline points="355.0,6.0 355.0,304.0" fill="none" stroke="#33393b" />
	<polyline points="505.0,6.0 505.0,304.0" fill="none" stroke="#33393b" />
	<polyline points="56.0,80.0 654.0,80.0" fill="none" stroke="#33393b" />
	<polyline points="56.0,155.0 654.0,155.0" fill="none" stroke="#33393b" />
	<polyline points="56.0,230.0 654.0,230.0" fill="none" stroke="#33393b" />
	<text x="5.0" y="351.0" font-family="Nimbus Sans" font-size="12pt">HHI_avg_MC_1</text>
	<text x="122.0" y="351.0" fill="#ff6347" font-family="Nimbus Sans" font-size="12pt">HHI_ci+_MC_1</text>
	<text x="233.0" y="351.0" fill="#008000" font-family="Nimbus Sans" font-size="12pt">HHI_ci-_MC_1</text>
	<polyline points="55.0,304.0 61.0,304.0 67.0,303.0 73.0,301.0 79.0,297.0 85.0,292.0 91.0,284.0 97.0,271.0 103.0,254.0 109.0,230.0 115.0,197.0 121.0,157.0 127.0,119.0 133.0,98.0 139.0,95.0 145.0,101.0 151.0,154.0 158.0,163.0 164.0,174.0 170.0,185.0 176.0,190.0 182.0,207.0 188.0,207.0 194.0,204.0 200.0,196.0 206.0,197.0 212.0,187.0 218.0,197.0 224.0,201.0 230.0,203.0 236.0,189.0 242.0,169.0 248.0,155.0 255.0,171.0 261.0,166.0 267.0,172.0 273.0,173.0 279.0,171.0 285.0,175.0 291.0,168.0 297.0,182.0 303.0,181.0 309.0,196.0 315.0,200.0 321.0,203.0 327.0,201.0 333.0,195.0 339.0,188.0 345.0,171.0 351.0,151.0 358.0,150.0 364.0,153.0 370.0,147.0 376.0,136.0 382.0,157.0 388.0,156.0 394.0,155.0 400.0,170.0 406.0,167.0 412.0,190.0 418.0,199.0 424.0,200.0 430.0,199.0 436.0,199.0 442.0,189.0 448.0,181.0 455.0,189.0 461.0,181.0 467.0,173.0 473.0,175.0 479.0,185.0 485.0,183.0 491.0,193.0 497.0,206.0 503.0,199.0 509.0,209.0 515.0,201.0 521.0,188.0 527.0,179.0 533.0,183.0 539.0,194.0 545.0,175.0 551.0,186.0 558.0,190.0 564.0,181.0 570.0,186.0 576.0,171.0 582.0,167.0 588.0,183.0 594.0,197.0 600.0,201.0 606.0,206.0 612.0,195.0 618.0,197.0 624.0,185.0 630.0,183.0 636.0,174.0 642.0,177.0 648.0,185.0 654.0,188.0" fill="none" stroke="#000000" />
	<polyline points="55.0,304.0 61.0,304.0 67.0,303.0 73.0,300.0 79.0,296.0 85.0,289.0 91.0,279.0 97.0,263.0 103.0,238.0 109.0,206.0 115.0,159.0 121.0,102.0 127.0,53.0 133.0,26.0 139.0,9.0 145.0,27.0 151.0,124.0 158.0,132.0 164.0,150.0 170.0,160.0 176.0,164.0 182.0,182.0 188.0,181.0 194.0,179.0 200.0,165.0 206.0,169.0 212.0,154.0 218.0,170.0 224.0,178.0 230.0,181.0 236.0,159.0 242.0,127.0 248.0,114.0 255.0,144.0 261.0,135.0 267.0,141.0 273.0,138.0 279.0,129.0 285.0,138.0 291.0,131.0 297.0,149.0 303.0,153.0 309.0,175.0 315.0,181.0 321.0,182.0 327.0,178.0 333.0,168.0 339.0,153.0 345.0,127.0 351.0,115.0 358.0,117.0 364.0,116.0 370.0,105.0 376.0,86.0 382.0,125.0 388.0,122.0 394.0,116.0 400.0,135.0 406.0,127.0 412.0,160.0 418.0,176.0 424.0,181.0 430.0,177.0 436.0,175.0 442.0,163.0 448.0,152.0 455.0,164.0 461.0,151.0 467.0,141.0 473.0,145.0 479.0,153.0 485.0,146.0 491.0,161.0 497.0,182.0 503.0,169.0 509.0,189.0 515.0,177.0 521.0,160.0 527.0,153.0 533.0,158.0 539.0,171.0 545.0,145.0 551.0,155.0 558.0,155.0 564.0,143.0 570.0,145.0 576.0,122.0 582.0,113.0 588.0,142.0 594.0,166.0 600.0,169.0 606.0,174.0 612.0,160.0 618.0,169.0 624.0,156.0 630.0,149.0 636.0,137.0 642.0,146.0 648.0,158.0 654.0,163.0" fill="none" stroke="#ff6347" />
	<polyline points="55.0,304.0 61.0,304.0 67.0,303.0 73.0,302.0 79.0,299.0 85.0,295.0 91.0,289.0 97.0,280.0 103.0,269.0 109.0,254.0 115.0,235.0 121.0,213.0 127.0,186.0 133.0,170.0 139.0,181.0 145.0,175.0 151.0,183.0 158.0,193.0 164.0,198.0 170.0,210.0 176.0,215.0 182.0,232.0 188.0,234.0 194.0,229.0 200.0,227.0 206.0,224.0 212.0,220.0 218.0,224.0 224.0,225.0 230.0,225.0 236.0,220.0 242.0,211.0 248.0,196.0 255.0,198.0 261.0,197.0 267.0,203.0 273.0,209.0 279.0,213.0 285.0,213.0 291.0,205.0 297.0,214.0 303.0,209.0 309.0,218.0 315.0,220.0 321.0,224.0 327.0,225.0 333.0,222.0 339.0,224.0 345.0,215.0 351.0,188.0 358.0,184.0 364.0,189.0 370.0,189.0 376.0,186.0 382.0,189.0 388.0,190.0 394.0,193.0 400.0,205.0 406.0,207.0 412.0,221.0 418.0,221.0 424.0,219.0 430.0,220.0 436.0,223.0 442.0,216.0 448.0,210.0 455.0,214.0 461.0,212.0 467.0,204.0 473.0,204.0 479.0,216.0 485.0,219.0 491.0,224.0 497.0,230.0 503.0,228.0 509.0,230.0 515.0,226.0 521.0,216.0 527.0,205.0 533.0,208.0 539.0,217.0 545.0,205.0 551.0,217.0 558.0,225.0 564.0,219.0 570.0,226.0 576.0,220.0 582.0,221.0 588.0,225.0 594.0,227.0 600.0,233.0 606.0,237.0 612.0,231.0 618.0,226.0 624.0,215.0 630.0,218.0 636.0,211.0 642.0,209.0 648.0,211.0 654.0,214.0" fill="none" stroke="#008000" />
	<polyline points="55.0,5.0 655.0,5.0" fill="none" stroke="#b3b3b3" />
	<polyline points="55.0,305.0 655.0,305.0" fill="none" stroke="#b3b3b3" />
	<polyline points="55.0,305.0 55.0,310.0" fill="none" stroke="#b3b3b3" />
	<polyline points="205.0,305.0 205.0,310.0" fill="none" stroke="#b3b3b3" />
	<polyline points="355.0,305.0 355.0,310.0" fill="none" stroke="#b3b3b3" />
	<polyline points="505.0,305.0 505.0,310.0" fill="none" stroke="#b3b3b3" />
	<polyline points="655.0,305.0 655.0,310.0" fill="none" stroke="#b3b3b3" />
	<polyline points="55.0,5.0 55.0,305.0" fill="none" stroke="#b3b3b3" />
	<polyline points="655.0,5.0 655.0,305.0" fill="none" stroke="#b3b3b3" />
	<polyline points="50.0,5.0 55.0,5.0" fill="none" stroke="#b3b3b3" />
	<polyline points="50.0,80.0 55.0,80.0" fill="none" stroke="#b3b3b3" />
	<polyline points="50.0,155.0 55.0,155.0" fill="none" stroke="#b3b3b3" />
	<polyline points="50.0,230.0 55.0,230.0" fill="none" stroke="#b3b3b3" />
	<polyline points="50.0,305.0 55.0,305.0" fill="none" stroke="#b3b3b3" />
	<text x="55.0" y="329.0" fill="#b3b3b3" font-family="Nimbus Sans" font-size="12pt" text-anchor="middle">1</text>
	<text x="205.0" y="329.0" fill="#b3b3b3" font-family="Nimbus Sans" font-size="12pt" text-anchor="middle">25</text>
	<text x="355.0" y="329.0" fill="#b3b3b3" font-family="Nimbus Sans" font-size="12pt" text-anchor="middle">50</text>
	<text x="505.0" y="329.0" fill="#b3b3b3" font-family="Nimbus Sans" font-size="12pt" text-anchor="middle">75</text>
	<text x="655.0" y="329.0" fill="#b3b3b3" font-family="Nimbus Sans" font-size="12pt" text-anchor="middle">100</text>
	<text x="45.0" y="8.0" fill="#b3b3b3" font-family="Nimbus Sans" font-size="12pt" text-anchor="end">0.347</text>
	<text x="45.0" y="83.0" fill="#b3b3b3" font-family="Nimbus Sans" font-size="12pt" text-anchor="end">0.285</text>
	<text x="45.0" y="158.0" fill="#b3b3b3" font-family="Nimbus Sans" font-size="12pt" text-anchor="end">0.223</text>
	<text x="45.0" y="233.0" fill="#b3b3b3" font-family="Nimbus Sans" font-size="12pt" text-anchor="end">0.161</text>
	<text x="45.0" y="308.0" fill="#b3b3b3" font-family="Nimbus Sans" font-size="12pt" text-anchor="end">0.099</text>
</svg>
