<?xml version="1.0" encoding="utf-8"?>
<!-- Generator: Adobe Illustrator 16.0.0, SVG Export Plug-In . SVG Version: 6.00 Build 0)  -->
<!DOCTYPE svg PUBLIC "-//W3C//DTD SVG 1.1//EN" "http://www.w3.org/Graphics/SVG/1.1/DTD/svg11.dtd">
<svg version="1.1" id="Layer_1" xmlns="http://www.w3.org/2000/svg" xmlns:xlink="http://www.w3.org/1999/xlink" x="0px" y="0px"
	 width="1024px" height="768px" viewBox="0 0 1024 768" enable-background="new 0 0 1024 768" xml:space="preserve">
<g>
	<path fill="#26617F" d="M50.879,245.304h43.442v217.061H50.879V245.304z"/>
	<path fill="#26617F" d="M172.73,332.188h105.2c-4.541-12.814-12.313-23.209-23.311-31.182
		c-11.303-8.174-23.968-12.261-37.993-12.261c-17.963,0-33.301,6.357-46.016,19.072s-19.072,28.055-19.072,46.016
		c0,17.963,6.357,33.301,19.072,46.016s28.053,19.072,46.016,19.072c19.273,0,35.42-7.214,48.438-21.646h51.011
		c-8.477,19.477-21.596,35.117-39.355,46.924c-18.164,12.109-38.197,18.164-60.093,18.164h-108.53v-108.53
		c0-29.971,10.596-55.552,31.787-76.743s46.772-31.787,76.743-31.787s55.552,10.596,76.743,31.787s31.787,46.772,31.787,76.743
		c0,7.266-0.707,14.481-2.119,21.646H172.73V332.188z"/>
</g>
<g>
	<path fill="#737479" d="M345.713,260.119h14.775v73.826h-14.775V260.119z"/>
	<path fill="#737479" d="M402.344,260.119c10.194,0,18.894,3.604,26.102,10.812s10.812,15.908,10.812,26.102v36.913h-14.775v-36.913
		c0-6.109-2.163-11.326-6.487-15.65c-4.325-4.325-9.542-6.487-15.651-6.487c-6.109,0-11.326,2.162-15.651,6.487
		c-4.324,4.324-6.487,9.542-6.487,15.65c0,6.453,2.402,11.893,7.208,16.32v20.593h-21.983v-36.913
		c0-10.193,3.604-18.894,10.812-26.102S392.151,260.119,402.344,260.119z"/>
	<path fill="#737479" d="M481.164,274.997c-6.109,0-11.326,2.146-15.65,6.436c-4.291,4.325-6.436,9.542-6.436,15.651
		c0,4.736,3.089,11.755,9.267,21.056c8.546,12.837,12.819,23.03,12.819,30.581c0,10.194-3.604,18.876-10.811,26.05
		c-7.174,7.208-15.857,10.812-26.05,10.812v-14.724c6.109,0,11.326-2.162,15.651-6.487c4.324-4.325,6.487-9.542,6.487-15.651
		c0-4.874-3.107-11.893-9.318-21.056c-8.546-12.596-12.819-22.789-12.819-30.581c0-10.159,3.604-18.843,10.812-26.05
		c7.208-7.208,15.89-10.812,26.05-10.812V274.997z"/>
	<path fill="#737479" d="M501.036,245.292v14.775h22.138v14.775h-22.138v59.102h-14.775v-88.653H501.036z"/>
	<path fill="#737479" d="M527.756,260.119h14.775v73.826h-14.775V260.119z"/>
	<path fill="#737479" d="M562.197,245.292v14.775h22.138v14.775h-22.138v59.102h-14.775v-88.653H562.197z"/>
	<path fill="#737479" d="M599.779,323.133c-7.207-7.208-10.811-15.925-10.811-26.153v-36.913h21.982v20.645
		c-4.806,4.394-7.207,9.816-7.207,16.269c0,6.144,2.162,11.377,6.486,15.702c4.325,4.324,9.559,6.487,15.702,6.487
		c6.109,0,11.326-2.163,15.651-6.487c4.324-4.325,6.486-9.542,6.486-15.651v-36.964h14.775v36.964
		c0,10.194-3.604,18.894-10.812,26.102c-7.207,7.208-15.908,10.812-26.102,10.812C615.705,333.945,606.987,330.341,599.779,323.133z
		"/>
	<path fill="#737479" d="M682.719,245.292v14.775h22.138v14.775h-22.138v59.102h-14.775v-88.653H682.719z"/>
	<path fill="#737479" d="M746.505,260.119c10.193,0,18.895,3.604,26.102,10.812c7.208,7.208,10.812,15.908,10.812,26.102
		c0,10.194-3.604,18.894-10.812,26.102c-7.207,7.208-15.908,10.812-26.102,10.812s-18.895-3.604-26.102-10.812
		c-7.208-7.208-10.812-15.908-10.812-26.102c0-10.193,3.604-18.894,10.812-26.102C727.61,263.723,736.312,260.119,746.505,260.119z
		 M746.505,319.169c6.108,0,11.326-2.163,15.65-6.487c4.325-4.325,6.487-9.542,6.487-15.651c0-6.109-2.162-11.326-6.487-15.65
		c-4.324-4.325-9.542-6.487-15.65-6.487c-6.109,0-11.326,2.162-15.65,6.487c-4.325,4.324-6.487,9.542-6.487,15.65
		c0,6.109,2.162,11.326,6.487,15.651C735.179,317.007,740.396,319.169,746.505,319.169z"/>
	<path fill="#737479" d="M888.649,245.292v88.653h-36.913c-10.229,0-18.946-3.604-26.153-10.812
		c-7.208-7.208-10.812-15.925-10.812-26.153c0-10.194,3.604-18.894,10.812-26.102c7.207-7.208,15.925-10.811,26.153-10.811
		c8.168,0,15.548,2.471,22.138,7.414v-22.189H888.649z M851.736,319.169c6.108,0,11.326-2.163,15.65-6.487
		c4.324-4.325,6.487-9.558,6.487-15.702c0-6.109-2.163-11.326-6.487-15.651s-9.542-6.487-15.65-6.487
		c-6.145,0-11.378,2.162-15.702,6.487c-4.325,4.325-6.487,9.542-6.487,15.651c0,6.144,2.162,11.377,6.487,15.702
		C840.358,317.007,845.592,319.169,851.736,319.169z"/>
	<path fill="#737479" d="M915.214,289.67h35.78c-1.545-4.358-4.188-7.894-7.929-10.605c-3.844-2.78-8.151-4.17-12.922-4.17
		c-6.109,0-11.326,2.162-15.65,6.487c-4.325,4.324-6.487,9.542-6.487,15.65c0,6.109,2.162,11.326,6.487,15.651
		c4.324,4.324,9.541,6.487,15.65,6.487c6.556,0,12.047-2.454,16.475-7.362h17.35c-2.883,6.625-7.345,11.944-13.386,15.96
		c-6.178,4.119-12.991,6.178-20.438,6.178H893.23v-36.913c0-10.193,3.604-18.894,10.812-26.102s15.908-10.812,26.102-10.812
		s18.895,3.604,26.102,10.812c7.208,7.208,10.812,15.908,10.812,26.102c0,2.471-0.24,4.925-0.721,7.362h-51.122V289.67z"/>
	<path fill="#737479" d="M367.645,416.193h35.78c-1.544-4.358-4.188-7.894-7.928-10.605c-3.844-2.779-8.152-4.17-12.922-4.17
		c-6.109,0-11.326,2.162-15.65,6.487c-4.325,4.324-6.487,9.542-6.487,15.65c0,6.109,2.162,11.326,6.487,15.65
		c4.324,4.325,9.541,6.487,15.65,6.487c6.555,0,12.047-2.453,16.475-7.362h17.35c-2.883,6.625-7.345,11.944-13.386,15.96
		c-6.178,4.118-12.991,6.178-20.438,6.178h-36.913v-36.913c0-10.193,3.604-18.894,10.812-26.102s15.908-10.812,26.102-10.812
		c10.194,0,18.894,3.604,26.102,10.812c7.208,7.208,10.812,15.908,10.812,26.102c0,2.472-0.24,4.926-0.721,7.362h-51.122V416.193z"
		/>
	<path fill="#737479" d="M461.755,445.693c4.77,0,9.078-1.391,12.922-4.17c3.741-2.711,6.384-6.246,7.928-10.605h15.342
		c-1.75,8.512-5.972,15.548-12.665,21.107c-6.83,5.63-14.672,8.443-23.527,8.443h-36.913v-36.913
		c0-10.193,3.604-18.894,10.811-26.102s15.908-10.812,26.102-10.812c8.855,0,16.68,2.814,23.476,8.443
		c6.726,5.56,10.965,12.579,12.716,21.057h-15.342c-1.544-4.325-4.188-7.843-7.928-10.555c-3.844-2.779-8.152-4.17-12.922-4.17
		c-6.11,0-11.326,2.162-15.651,6.487c-4.325,4.324-6.487,9.542-6.487,15.65c0,6.109,2.162,11.326,6.487,15.65
		C450.429,443.531,455.646,445.693,461.755,445.693z"/>
	<path fill="#737479" d="M539.699,386.643c10.193,0,18.895,3.604,26.102,10.812c7.209,7.208,10.813,15.908,10.813,26.102
		s-3.604,18.895-10.813,26.102c-7.207,7.208-15.908,10.812-26.102,10.812s-18.894-3.604-26.102-10.812
		c-7.207-7.207-10.811-15.908-10.811-26.102s3.604-18.894,10.811-26.102C520.806,390.246,529.506,386.643,539.699,386.643z
		 M539.699,445.693c6.109,0,11.326-2.162,15.65-6.487c4.326-4.324,6.488-9.541,6.488-15.65c0-6.108-2.162-11.326-6.488-15.65
		c-4.324-4.325-9.541-6.487-15.65-6.487s-11.326,2.162-15.65,6.487c-4.324,4.324-6.487,9.542-6.487,15.65
		c0,6.109,2.163,11.326,6.487,15.65C528.373,443.531,533.59,445.693,539.699,445.693z"/>
	<path fill="#737479" d="M618.623,386.643c10.193,0,18.894,3.604,26.102,10.812c7.207,7.208,10.811,15.908,10.811,26.102v36.913
		H640.76v-36.913c0-6.108-2.162-11.326-6.486-15.65c-4.324-4.325-9.542-6.487-15.65-6.487c-6.11,0-11.326,2.162-15.651,6.487
		c-4.324,4.324-6.486,9.542-6.486,15.65c0,6.453,2.401,11.893,7.207,16.32v20.593H581.71v-36.913
		c0-10.193,3.604-18.894,10.811-26.102C599.729,390.246,608.429,386.643,618.623,386.643z"/>
	<path fill="#737479" d="M697.751,386.643c10.193,0,18.895,3.604,26.102,10.812c7.208,7.208,10.812,15.908,10.812,26.102
		s-3.604,18.895-10.812,26.102c-7.207,7.208-15.908,10.812-26.102,10.812s-18.895-3.604-26.102-10.812
		c-7.208-7.207-10.812-15.908-10.812-26.102s3.604-18.894,10.812-26.102C678.856,390.246,687.558,386.643,697.751,386.643z
		 M697.751,445.693c6.108,0,11.326-2.162,15.65-6.487c4.325-4.324,6.487-9.541,6.487-15.65c0-6.108-2.162-11.326-6.487-15.65
		c-4.324-4.325-9.542-6.487-15.65-6.487c-6.109,0-11.326,2.162-15.65,6.487c-4.325,4.324-6.487,9.542-6.487,15.65
		c0,6.109,2.162,11.326,6.487,15.65C686.425,443.531,691.642,445.693,697.751,445.693z"/>
	<path fill="#737479" d="M835.674,386.539c10.193,0,18.894,3.604,26.102,10.813c7.241,7.207,10.862,15.926,10.862,26.152v36.965
		h-14.775v-36.965c0-6.143-2.18-11.377-6.538-15.702c-4.324-4.324-9.542-6.486-15.65-6.486c-6.145,0-11.378,2.162-15.702,6.486
		c-4.325,4.359-6.487,9.594-6.487,15.702c0,6.487,2.402,11.928,7.208,16.32v20.645h-21.983v-36.965
		c0-6.108-2.162-11.343-6.487-15.702c-4.358-4.324-9.593-6.486-15.702-6.486s-11.344,2.162-15.702,6.486
		c-4.324,4.359-6.486,9.594-6.486,15.702c0,6.487,2.402,11.928,7.207,16.32v20.645h-21.982v-36.965
		c0-10.193,3.604-18.911,10.812-26.152c7.241-7.208,15.959-10.813,26.152-10.813c5.938,0,11.532,1.357,16.784,4.067
		c5.078,2.609,9.335,6.196,12.768,10.761c3.466-4.564,7.722-8.151,12.768-10.761C824.124,387.896,829.735,386.539,835.674,386.539z"
		/>
	<path fill="#737479" d="M878.043,386.643h14.775v73.826h-14.775V386.643z"/>
	<path fill="#737479" d="M934.623,386.643c10.193,0,18.894,3.604,26.102,10.812c7.207,7.208,10.812,15.908,10.812,26.102v36.913
		h-36.913c-10.193,0-18.895-3.604-26.102-10.812c-7.208-7.207-10.812-15.908-10.812-26.102s3.604-18.894,10.812-26.102
		C915.729,390.246,924.43,386.643,934.623,386.643z M912.485,423.556c0,6.109,2.162,11.326,6.487,15.65
		c4.324,4.325,9.541,6.487,15.65,6.487c6.108,0,11.326-2.162,15.65-6.487c4.324-4.324,6.487-9.541,6.487-15.65
		c0-6.108-2.163-11.326-6.487-15.65c-4.324-4.325-9.542-6.487-15.65-6.487c-6.109,0-11.326,2.162-15.65,6.487
		C914.647,412.229,912.485,417.447,912.485,423.556z"/>
</g>
</svg>
