<?xml version="1.0" encoding="UTF-8" standalone="no"?>
<!DOCTYPE svg PUBLIC "-//W3C//DTD SVG 1.1//EN" "http://www.w3.org/Graphics/SVG/1.1/DTD/svg11.dtd">
<svg xmlns="http://www.w3.org/2000/svg"  version="1.1" width="696.0" height="389.0" viewBox="-6.0 -13.0 690.0 376.0">
	<desc>LSD Plot - Sim1</desc>
	<polyline points="205.0,6.0 205.0,304.0" fill="none" stroke="#33393b" />
	<polyline points="355.0,6.0 355.0,304.0" fill="none" stroke="#33393b" />
	<polyline points="505.0,6.0 505.0,304.0" fill="none" stroke="#33393b" />
	<polyline points="56.0,80.0 654.0,80.0" fill="none" stroke="#33393b" />
	<polyline points="56.0,155.0 654.0,155.0" fill="none" stroke="#33393b" />
	<polyline points="56.0,230.0 654.0,230.0" fill="none" stroke="#33393b" />
	<text x="5.0" y="351.0" font-family="Nimbus Sans" font-size="12pt">HHI_1</text>
	<polyline points="55.0,304.0 61.0,304.0 67.0,303.0 73.0,300.0 79.0,296.0 85.0,291.0 91.0,286.0 97.0,276.0 103.0,266.0 109.0,255.0 115.0,246.0 121.0,237.0 127.0,216.0 133.0,182.0 139.0,134.0 145.0,55.0 151.0,86.0 158.0,70.0 164.0,131.0 170.0,114.0 176.0,144.0 182.0,234.0 188.0,259.0 194.0,260.0 200.0,261.0 206.0,261.0 212.0,260.0 218.0,259.0 224.0,256.0 230.0,246.0 236.0,227.0 242.0,198.0 248.0,204.0 255.0,170.0 261.0,131.0 267.0,80.0 273.0,10.0 279.0,27.0 285.0,47.0 291.0,14.0 297.0,81.0 303.0,46.0 309.0,212.0 315.0,191.0 321.0,219.0 327.0,214.0 333.0,206.0 339.0,190.0 345.0,165.0 351.0,139.0 358.0,114.0 364.0,89.0 370.0,65.0 376.0,25.0 382.0,96.0 388.0,216.0 394.0,241.0 400.0,229.0 406.0,218.0 412.0,198.0 418.0,197.0 424.0,219.0 430.0,215.0 436.0,213.0 442.0,214.0 448.0,212.0 455.0,240.0 461.0,265.0 467.0,283.0 473.0,283.0 479.0,283.0 485.0,280.0 491.0,277.0 497.0,286.0 503.0,279.0 509.0,270.0 515.0,250.0 521.0,228.0 527.0,206.0 533.0,180.0 539.0,150.0 545.0,127.0 551.0,135.0 558.0,214.0 564.0,96.0 570.0,174.0 576.0,170.0 582.0,161.0 588.0,153.0 594.0,184.0 600.0,219.0 606.0,217.0 612.0,217.0 618.0,215.0 624.0,207.0 630.0,228.0 636.0,243.0 642.0,228.0 648.0,211.0 654.0,188.0" fill="none" stroke="#000000" />
	<polyline points="55.0,5.0 655.0,5.0" fill="none" stroke="#b3b3b3" />
	<polyline points="55.0,305.0 655.0,305.0" fill="none" stroke="#b3b3b3" />
	<polyline points="55.0,305.0 55.0,310.0" fill="none" stroke="#b3b3b3" />
	<polyline points="205.0,305.0 205.0,310.0" fill="none" stroke="#b3b3b3" />
	<polyline points="355.0,305.0 355.0,310.0" fill="none" stroke="#b3b3b3" />
	<polyline points="505.0,305.0 505.0,310.0" fill="none" stroke="#b3b3b3" />
	<polyline points="655.0,305.0 655.0,310.0" fill="none" stroke="#b3b3b3" />
	<polyline points="55.0,5.0 55.0,305.0" fill="none" stroke="#b3b3b3" />
	<polyline points="655.0,5.0 655.0,305.0" fill="none" stroke="#b3b3b3" />
	<polyline points="50.0,5.0 55.0,5.0" fill="none" stroke="#b3b3b3" />
	<polyline points="50.0,80.0 55.0,80.0" fill="none" stroke="#b3b3b3" />
	<polyline points="50.0,155.0 55.0,155.0" fill="none" stroke="#b3b3b3" />
	<polyline points="50.0,230.0 55.0,230.0" fill="none" stroke="#b3b3b3" />
	<polyline points="50.0,305.0 55.0,305.0" fill="none" stroke="#b3b3b3" />
	<text x="55.0" y="329.0" fill="#b3b3b3" font-family="Nimbus Sans" font-size="12pt" text-anchor="middle">1</text>
	<text x="205.0" y="329.0" fill="#b3b3b3" font-family="Nimbus Sans" font-size="12pt" text-anchor="middle">25</text>
	<text x="355.0" y="329.0" fill="#b3b3b3" font-family="Nimbus Sans" font-size="12pt" text-anchor="middle">50</text>
	<text x="505.0" y="329.0" fill="#b3b3b3" font-family="Nimbus Sans" font-size="12pt" text-anchor="middle">75</text>
	<text x="655.0" y="329.0" fill="#b3b3b3" font-family="Nimbus Sans" font-size="12pt" text-anchor="middle">100</text>
	<text x="45.0" y="8.0" fill="#b3b3b3" font-family="Nimbus Sans" font-size="12pt" text-anchor="end">0.363</text>
	<text x="45.0" y="83.0" fill="#b3b3b3" font-family="Nimbus Sans" font-size="12pt" text-anchor="end">0.297</text>
	<text x="45.0" y="158.0" fill="#b3b3b3" font-family="Nimbus Sans" font-size="12pt" text-anchor="end">0.231</text>
	<text x="45.0" y="233.0" fill="#b3b3b3" font-family="Nimbus Sans" font-size="12pt" text-anchor="end">0.165</text>
	<text x="45.0" y="308.0" fill="#b3b3b3" font-family="Nimbus Sans" font-size="12pt" text-anchor="end">0.099</text>
</svg>
