<?xml version="1.0" encoding="UTF-8" standalone="no"?>
<!DOCTYPE svg PUBLIC "-//W3C//DTD SVG 1.1//EN" "http://www.w3.org/Graphics/SVG/1.1/DTD/svg11.dtd">
<svg xmlns="http://www.w3.org/2000/svg"  version="1.1" width="714.0" height="389.0" viewBox="-6.0 -13.0 708.0 376.0">
	<desc>LSD Plot - Sim1</desc>
	<polyline points="223.0,6.0 223.0,304.0" fill="none" stroke="#33393b" />
	<polyline points="373.0,6.0 373.0,304.0" fill="none" stroke="#33393b" />
	<polyline points="523.0,6.0 523.0,304.0" fill="none" stroke="#33393b" />
	<polyline points="74.0,80.0 672.0,80.0" fill="none" stroke="#33393b" />
	<polyline points="74.0,155.0 672.0,155.0" fill="none" stroke="#33393b" />
	<polyline points="74.0,230.0 672.0,230.0" fill="none" stroke="#33393b" />
	<text x="5.0" y="351.0" font-family="Nimbus Sans" font-size="12pt">s_1_1</text>
	<text x="54.0" y="351.0" fill="#ff6347" font-family="Nimbus Sans" font-size="12pt">s_1_2</text>
	<text x="103.0" y="351.0" fill="#008000" font-family="Nimbus Sans" font-size="12pt">s_1_3</text>
	<text x="152.0" y="351.0" fill="#eeee00" font-family="Nimbus Sans" font-size="12pt">s_1_4</text>
	<text x="201.0" y="351.0" fill="#ffc0cb" font-family="Nimbus Sans" font-size="12pt">s_1_5</text>
	<text x="250.0" y="351.0" fill="#4682b4" font-family="Nimbus Sans" font-size="12pt">s_1_6</text>
	<text x="299.0" y="351.0" fill="#00bfff" font-family="Nimbus Sans" font-size="12pt">s_1_7</text>
	<text x="348.0" y="351.0" fill="#4876ff" font-family="Nimbus Sans" font-size="12pt">s_1_8</text>
	<text x="397.0" y="351.0" fill="#aeeeee" font-family="Nimbus Sans" font-size="12pt">s_1_9</text>
	<text x="446.0" y="351.0" fill="#00ffff" font-family="Nimbus Sans" font-size="12pt">s_1_10</text>
	<polyline points="73.0,252.0 79.0,254.0 85.0,255.0 91.0,257.0 97.0,261.0 103.0,264.0 109.0,269.0 115.0,273.0 121.0,277.0 127.0,282.0 133.0,286.0 139.0,289.0 145.0,294.0 151.0,297.0 157.0,300.0 163.0,282.0 169.0,279.0 176.0,283.0 182.0,284.0 188.0,287.0 194.0,298.0 200.0,300.0 206.0,300.0 212.0,300.0 218.0,300.0 224.0,299.0 230.0,299.0 236.0,298.0 242.0,298.0 248.0,298.0 254.0,298.0 260.0,301.0 266.0,301.0 273.0,301.0 279.0,301.0 285.0,302.0 291.0,303.0 297.0,257.0 303.0,252.0 309.0,257.0 315.0,280.0 321.0,289.0 327.0,293.0 333.0,294.0 339.0,293.0 345.0,292.0 351.0,293.0 357.0,294.0 363.0,296.0 369.0,297.0 376.0,298.0 382.0,300.0 388.0,302.0 394.0,283.0 400.0,291.0 406.0,294.0 412.0,296.0 418.0,297.0 424.0,301.0 430.0,302.0 436.0,256.0 442.0,257.0 448.0,256.0 454.0,252.0 460.0,243.0 466.0,247.0 473.0,265.0 479.0,269.0 485.0,267.0 491.0,265.0 497.0,266.0 503.0,268.0 509.0,273.0 515.0,269.0 521.0,266.0 527.0,263.0 533.0,260.0 539.0,256.0 545.0,253.0 551.0,254.0 557.0,254.0 563.0,269.0 569.0,284.0 576.0,297.0 582.0,300.0 588.0,300.0 594.0,301.0 600.0,302.0 606.0,257.0 612.0,262.0 618.0,262.0 624.0,262.0 630.0,264.0 636.0,266.0 642.0,274.0 648.0,281.0 654.0,283.0 660.0,284.0 666.0,286.0 672.0,288.0" fill="none" stroke="#000000" />
	<polyline points="73.0,252.0 79.0,252.0 85.0,254.0 91.0,258.0 97.0,260.0 103.0,263.0 109.0,267.0 115.0,270.0 121.0,271.0 127.0,271.0 133.0,269.0 139.0,267.0 145.0,266.0 151.0,266.0 157.0,269.0 163.0,292.0 169.0,295.0 176.0,299.0 182.0,302.0 188.0,251.0 194.0,276.0 200.0,277.0 206.0,273.0 212.0,270.0 218.0,265.0 224.0,255.0 230.0,244.0 236.0,228.0 242.0,207.0 248.0,177.0 254.0,143.0 260.0,148.0 266.0,120.0 273.0,93.0 279.0,66.0 285.0,32.0 291.0,30.0 297.0,26.0 303.0,8.0 309.0,43.0 315.0,169.0 321.0,220.0 327.0,251.0 333.0,266.0 339.0,270.0 345.0,273.0 351.0,276.0 357.0,279.0 363.0,283.0 369.0,288.0 376.0,291.0 382.0,295.0 388.0,298.0 394.0,305.0 400.0,265.0 406.0,266.0 412.0,262.0 418.0,261.0 424.0,277.0 430.0,275.0 436.0,277.0 442.0,278.0 448.0,279.0 454.0,280.0 460.0,281.0 466.0,285.0 473.0,294.0 479.0,297.0 485.0,298.0 491.0,299.0 497.0,300.0 503.0,301.0 509.0,251.0 515.0,249.0 521.0,249.0 527.0,250.0 533.0,255.0 539.0,261.0 545.0,268.0 551.0,272.0 557.0,276.0 563.0,289.0 569.0,298.0 576.0,304.0 582.0,258.0 588.0,253.0 594.0,249.0 600.0,245.0 606.0,242.0 612.0,241.0 618.0,225.0 624.0,208.0 630.0,192.0 636.0,174.0 642.0,169.0 648.0,179.0 654.0,162.0 660.0,141.0 666.0,121.0 672.0,98.0" fill="none" stroke="#ff6347" />
	<polyline points="73.0,252.0 79.0,254.0 85.0,259.0 91.0,264.0 97.0,269.0 103.0,274.0 109.0,279.0 115.0,285.0 121.0,289.0 127.0,292.0 133.0,294.0 139.0,296.0 145.0,297.0 151.0,299.0 157.0,301.0 163.0,276.0 169.0,274.0 176.0,279.0 182.0,280.0 188.0,284.0 194.0,296.0 200.0,297.0 206.0,296.0 212.0,296.0 218.0,295.0 224.0,295.0 230.0,294.0 236.0,292.0 242.0,290.0 248.0,289.0 254.0,287.0 260.0,290.0 266.0,289.0 273.0,289.0 279.0,291.0 285.0,292.0 291.0,295.0 297.0,298.0 303.0,299.0 309.0,301.0 315.0,305.0 321.0,264.0 327.0,278.0 333.0,282.0 339.0,281.0 345.0,279.0 351.0,279.0 357.0,277.0 363.0,277.0 369.0,278.0 376.0,280.0 382.0,283.0 388.0,286.0 394.0,300.0 400.0,303.0 406.0,245.0 412.0,247.0 418.0,247.0 424.0,268.0 430.0,266.0 436.0,265.0 442.0,261.0 448.0,258.0 454.0,256.0 460.0,251.0 466.0,257.0 473.0,276.0 479.0,281.0 485.0,280.0 491.0,277.0 497.0,276.0 503.0,271.0 509.0,268.0 515.0,262.0 521.0,254.0 527.0,243.0 533.0,231.0 539.0,211.0 545.0,187.0 551.0,164.0 557.0,139.0 563.0,180.0 569.0,220.0 576.0,266.0 582.0,275.0 588.0,278.0 594.0,280.0 600.0,283.0 606.0,289.0 612.0,294.0 618.0,297.0 624.0,299.0 630.0,300.0 636.0,301.0 642.0,245.0 648.0,254.0 654.0,254.0 660.0,256.0 666.0,255.0 672.0,255.0" fill="none" stroke="#008000" />
	<polyline points="73.0,252.0 79.0,249.0 85.0,246.0 91.0,244.0 97.0,245.0 103.0,244.0 109.0,235.0 115.0,227.0 121.0,221.0 127.0,215.0 133.0,211.0 139.0,209.0 145.0,213.0 151.0,221.0 157.0,230.0 163.0,278.0 169.0,283.0 176.0,290.0 182.0,291.0 188.0,295.0 194.0,302.0 200.0,237.0 206.0,235.0 212.0,235.0 218.0,238.0 224.0,244.0 230.0,251.0 236.0,257.0 242.0,266.0 248.0,271.0 254.0,277.0 260.0,288.0 266.0,292.0 273.0,295.0 279.0,298.0 285.0,301.0 291.0,237.0 297.0,247.0 303.0,247.0 309.0,258.0 315.0,283.0 321.0,293.0 327.0,297.0 333.0,297.0 339.0,295.0 345.0,293.0 351.0,291.0 357.0,291.0 363.0,291.0 369.0,292.0 376.0,294.0 382.0,296.0 388.0,298.0 394.0,304.0 400.0,252.0 406.0,260.0 412.0,258.0 418.0,260.0 424.0,277.0 430.0,279.0 436.0,285.0 442.0,288.0 448.0,291.0 454.0,294.0 460.0,296.0 466.0,300.0 473.0,304.0 479.0,237.0 485.0,236.0 491.0,235.0 497.0,234.0 503.0,236.0 509.0,242.0 515.0,241.0 521.0,239.0 527.0,238.0 533.0,243.0 539.0,250.0 545.0,252.0 551.0,258.0 557.0,264.0 563.0,283.0 569.0,295.0 576.0,303.0 582.0,243.0 588.0,244.0 594.0,243.0 600.0,243.0 606.0,252.0 612.0,265.0 618.0,270.0 624.0,276.0 630.0,281.0 636.0,285.0 642.0,290.0 648.0,296.0 654.0,297.0 660.0,299.0 666.0,301.0 672.0,302.0" fill="none" stroke="#eeee00" />
	<polyline points="73.0,252.0 79.0,248.0 85.0,240.0 91.0,231.0 97.0,220.0 103.0,210.0 109.0,204.0 115.0,193.0 121.0,184.0 127.0,172.0 133.0,163.0 139.0,154.0 145.0,129.0 151.0,96.0 157.0,58.0 163.0,172.0 169.0,158.0 176.0,181.0 182.0,178.0 188.0,189.0 194.0,251.0 200.0,258.0 206.0,256.0 212.0,254.0 218.0,253.0 224.0,252.0 230.0,252.0 236.0,254.0 242.0,254.0 248.0,256.0 254.0,257.0 260.0,269.0 266.0,272.0 273.0,275.0 279.0,278.0 285.0,280.0 291.0,285.0 297.0,290.0 303.0,292.0 309.0,297.0 315.0,303.0 321.0,250.0 327.0,268.0 333.0,278.0 339.0,280.0 345.0,282.0 351.0,284.0 357.0,287.0 363.0,291.0 369.0,294.0 376.0,297.0 382.0,299.0 388.0,301.0 394.0,266.0 400.0,277.0 406.0,281.0 412.0,282.0 418.0,284.0 424.0,293.0 430.0,294.0 436.0,297.0 442.0,298.0 448.0,299.0 454.0,300.0 460.0,302.0 466.0,227.0 473.0,248.0 479.0,246.0 485.0,237.0 491.0,228.0 497.0,220.0 503.0,205.0 509.0,202.0 515.0,191.0 521.0,181.0 527.0,169.0 533.0,147.0 539.0,131.0 545.0,123.0 551.0,116.0 557.0,111.0 563.0,177.0 569.0,234.0 576.0,278.0 582.0,290.0 588.0,294.0 594.0,297.0 600.0,299.0 606.0,302.0 612.0,227.0 618.0,227.0 624.0,227.0 630.0,227.0 636.0,229.0 642.0,238.0 648.0,252.0 654.0,257.0 660.0,261.0 666.0,263.0 672.0,262.0" fill="none" stroke="#ffc0cb" />
	<polyline points="73.0,252.0 79.0,252.0 85.0,249.0 91.0,246.0 97.0,246.0 103.0,244.0 109.0,242.0 115.0,243.0 121.0,245.0 127.0,250.0 133.0,253.0 139.0,253.0 145.0,256.0 151.0,262.0 157.0,269.0 163.0,294.0 169.0,296.0 176.0,299.0 182.0,301.0 188.0,302.0 194.0,252.0 200.0,257.0 206.0,259.0 212.0,260.0 218.0,263.0 224.0,267.0 230.0,269.0 236.0,271.0 242.0,273.0 248.0,277.0 254.0,281.0 260.0,287.0 266.0,289.0 273.0,291.0 279.0,292.0 285.0,295.0 291.0,298.0 297.0,301.0 303.0,302.0 309.0,214.0 315.0,261.0 321.0,278.0 327.0,288.0 333.0,291.0 339.0,291.0 345.0,290.0 351.0,291.0 357.0,291.0 363.0,292.0 369.0,292.0 376.0,293.0 382.0,294.0 388.0,295.0 394.0,303.0 400.0,230.0 406.0,228.0 412.0,214.0 418.0,205.0 424.0,232.0 430.0,224.0 436.0,224.0 442.0,217.0 448.0,211.0 454.0,203.0 460.0,197.0 466.0,208.0 473.0,245.0 479.0,255.0 485.0,256.0 491.0,257.0 497.0,254.0 503.0,252.0 509.0,257.0 515.0,259.0 521.0,262.0 527.0,267.0 533.0,272.0 539.0,276.0 545.0,281.0 551.0,286.0 557.0,290.0 563.0,298.0 569.0,303.0 576.0,257.0 582.0,270.0 588.0,274.0 594.0,278.0 600.0,281.0 606.0,288.0 612.0,294.0 618.0,296.0 624.0,297.0 630.0,299.0 636.0,300.0 642.0,302.0 648.0,214.0 654.0,215.0 660.0,219.0 666.0,223.0 672.0,228.0" fill="none" stroke="#4682b4" />
	<polyline points="73.0,252.0 79.0,253.0 85.0,255.0 91.0,258.0 97.0,261.0 103.0,262.0 109.0,261.0 115.0,262.0 121.0,264.0 127.0,267.0 133.0,272.0 139.0,277.0 145.0,281.0 151.0,284.0 157.0,287.0 163.0,300.0 169.0,301.0 176.0,195.0 182.0,194.0 188.0,207.0 194.0,262.0 200.0,274.0 206.0,278.0 212.0,282.0 218.0,284.0 224.0,286.0 230.0,290.0 236.0,293.0 242.0,295.0 248.0,298.0 254.0,301.0 260.0,195.0 266.0,193.0 273.0,190.0 279.0,188.0 285.0,194.0 291.0,219.0 297.0,231.0 303.0,237.0 309.0,255.0 315.0,284.0 321.0,295.0 327.0,301.0 333.0,195.0 339.0,187.0 345.0,177.0 351.0,161.0 357.0,136.0 363.0,106.0 369.0,81.0 376.0,62.0 382.0,48.0 388.0,37.0 394.0,178.0 400.0,213.0 406.0,226.0 412.0,231.0 418.0,241.0 424.0,268.0 430.0,275.0 436.0,283.0 442.0,288.0 448.0,292.0 454.0,296.0 460.0,299.0 466.0,302.0 473.0,218.0 479.0,228.0 485.0,226.0 491.0,226.0 497.0,230.0 503.0,236.0 509.0,248.0 515.0,255.0 521.0,264.0 527.0,271.0 533.0,275.0 539.0,280.0 545.0,286.0 551.0,291.0 557.0,295.0 563.0,301.0 569.0,218.0 576.0,266.0 582.0,276.0 588.0,277.0 594.0,278.0 600.0,278.0 606.0,280.0 612.0,284.0 618.0,285.0 624.0,287.0 630.0,288.0 636.0,289.0 642.0,293.0 648.0,296.0 654.0,297.0 660.0,298.0 666.0,299.0 672.0,300.0" fill="none" stroke="#00bfff" />
	<polyline points="73.0,252.0 79.0,254.0 85.0,258.0 91.0,258.0 97.0,255.0 103.0,254.0 109.0,255.0 115.0,258.0 121.0,260.0 127.0,263.0 133.0,264.0 139.0,263.0 145.0,264.0 151.0,264.0 157.0,264.0 163.0,290.0 169.0,292.0 176.0,298.0 182.0,300.0 188.0,302.0 194.0,215.0 200.0,226.0 206.0,224.0 212.0,220.0 218.0,214.0 224.0,207.0 230.0,201.0 236.0,198.0 242.0,202.0 248.0,208.0 254.0,217.0 260.0,244.0 266.0,253.0 273.0,262.0 279.0,272.0 285.0,278.0 291.0,287.0 297.0,292.0 303.0,295.0 309.0,299.0 315.0,304.0 321.0,192.0 327.0,223.0 333.0,237.0 339.0,236.0 345.0,238.0 351.0,235.0 357.0,235.0 363.0,236.0 369.0,230.0 376.0,220.0 382.0,206.0 388.0,190.0 394.0,252.0 400.0,269.0 406.0,276.0 412.0,280.0 418.0,281.0 424.0,291.0 430.0,294.0 436.0,296.0 442.0,297.0 448.0,298.0 454.0,299.0 460.0,301.0 466.0,302.0 473.0,188.0 479.0,205.0 485.0,212.0 491.0,217.0 497.0,222.0 503.0,229.0 509.0,244.0 515.0,251.0 521.0,255.0 527.0,260.0 533.0,269.0 539.0,278.0 545.0,284.0 551.0,289.0 557.0,294.0 563.0,301.0 569.0,188.0 576.0,250.0 582.0,261.0 588.0,257.0 594.0,253.0 600.0,248.0 606.0,250.0 612.0,256.0 618.0,257.0 624.0,257.0 630.0,254.0 636.0,251.0 642.0,254.0 648.0,255.0 654.0,251.0 660.0,247.0 666.0,245.0 672.0,247.0" fill="none" stroke="#4876ff" />
	<polyline points="73.0,252.0 79.0,250.0 85.0,247.0 91.0,240.0 97.0,236.0 103.0,233.0 109.0,231.0 115.0,225.0 121.0,220.0 127.0,217.0 133.0,215.0 139.0,216.0 145.0,221.0 151.0,229.0 157.0,239.0 163.0,282.0 169.0,288.0 176.0,297.0 182.0,300.0 188.0,302.0 194.0,168.0 200.0,180.0 206.0,184.0 212.0,192.0 218.0,203.0 224.0,212.0 230.0,220.0 236.0,226.0 242.0,227.0 248.0,231.0 254.0,234.0 260.0,251.0 266.0,256.0 273.0,262.0 279.0,265.0 285.0,268.0 291.0,277.0 297.0,284.0 303.0,289.0 309.0,294.0 315.0,302.0 321.0,304.0 327.0,120.0 333.0,146.0 339.0,142.0 345.0,141.0 351.0,145.0 357.0,152.0 363.0,163.0 369.0,175.0 376.0,188.0 382.0,198.0 388.0,210.0 394.0,270.0 400.0,286.0 406.0,293.0 412.0,297.0 418.0,300.0 424.0,119.0 430.0,125.0 436.0,147.0 442.0,150.0 448.0,154.0 454.0,162.0 460.0,171.0 466.0,194.0 473.0,240.0 479.0,253.0 485.0,258.0 491.0,263.0 497.0,264.0 503.0,267.0 509.0,274.0 515.0,278.0 521.0,283.0 527.0,288.0 533.0,291.0 539.0,294.0 545.0,297.0 551.0,300.0 557.0,302.0 563.0,120.0 569.0,174.0 576.0,246.0 582.0,260.0 588.0,262.0 594.0,263.0 600.0,265.0 606.0,269.0 612.0,274.0 618.0,275.0 624.0,275.0 630.0,273.0 636.0,272.0 642.0,276.0 648.0,283.0 654.0,286.0 660.0,289.0 666.0,291.0 672.0,293.0" fill="none" stroke="#aeeeee" />
	<polyline points="73.0,252.0 79.0,254.0 85.0,256.0 91.0,260.0 97.0,266.0 103.0,271.0 109.0,276.0 115.0,282.0 121.0,287.0 127.0,288.0 133.0,291.0 139.0,293.0 145.0,296.0 151.0,299.0 157.0,301.0 163.0,52.0 169.0,51.0 176.0,97.0 182.0,89.0 188.0,99.0 194.0,198.0 200.0,212.0 206.0,214.0 212.0,209.0 218.0,202.0 224.0,200.0 230.0,199.0 236.0,201.0 242.0,206.0 248.0,213.0 254.0,224.0 260.0,246.0 266.0,253.0 273.0,261.0 279.0,269.0 285.0,277.0 291.0,287.0 297.0,293.0 303.0,298.0 309.0,302.0 315.0,26.0 321.0,133.0 327.0,199.0 333.0,232.0 339.0,242.0 345.0,252.0 351.0,265.0 357.0,275.0 363.0,283.0 369.0,290.0 376.0,295.0 382.0,299.0 388.0,301.0 394.0,57.0 400.0,132.0 406.0,149.0 412.0,152.0 418.0,142.0 424.0,192.0 430.0,185.0 436.0,189.0 442.0,185.0 448.0,180.0 454.0,175.0 460.0,177.0 466.0,196.0 473.0,240.0 479.0,247.0 485.0,249.0 491.0,251.0 497.0,252.0 503.0,254.0 509.0,261.0 515.0,264.0 521.0,266.0 527.0,270.0 533.0,276.0 539.0,281.0 545.0,285.0 551.0,290.0 557.0,294.0 563.0,300.0 569.0,304.0 576.0,51.0 582.0,86.0 588.0,79.0 594.0,77.0 600.0,73.0 606.0,89.0 612.0,121.0 618.0,125.0 624.0,130.0 630.0,139.0 636.0,151.0 642.0,177.0 648.0,209.0 654.0,216.0 660.0,225.0 666.0,234.0 672.0,244.0" fill="none" stroke="#00ffff" />
	<polyline points="73.0,5.0 673.0,5.0" fill="none" stroke="#b3b3b3" />
	<polyline points="73.0,305.0 673.0,305.0" fill="none" stroke="#b3b3b3" />
	<polyline points="73.0,305.0 73.0,310.0" fill="none" stroke="#b3b3b3" />
	<polyline points="223.0,305.0 223.0,310.0" fill="none" stroke="#b3b3b3" />
	<polyline points="373.0,305.0 373.0,310.0" fill="none" stroke="#b3b3b3" />
	<polyline points="523.0,305.0 523.0,310.0" fill="none" stroke="#b3b3b3" />
	<polyline points="673.0,305.0 673.0,310.0" fill="none" stroke="#b3b3b3" />
	<polyline points="73.0,5.0 73.0,305.0" fill="none" stroke="#b3b3b3" />
	<polyline points="673.0,5.0 673.0,305.0" fill="none" stroke="#b3b3b3" />
	<polyline points="68.0,5.0 73.0,5.0" fill="none" stroke="#b3b3b3" />
	<polyline points="68.0,80.0 73.0,80.0" fill="none" stroke="#b3b3b3" />
	<polyline points="68.0,155.0 73.0,155.0" fill="none" stroke="#b3b3b3" />
	<polyline points="68.0,230.0 73.0,230.0" fill="none" stroke="#b3b3b3" />
	<polyline points="68.0,305.0 73.0,305.0" fill="none" stroke="#b3b3b3" />
	<text x="73.0" y="329.0" fill="#b3b3b3" font-family="Nimbus Sans" font-size="12pt" text-anchor="middle">1</text>
	<text x="223.0" y="329.0" fill="#b3b3b3" font-family="Nimbus Sans" font-size="12pt" text-anchor="middle">25</text>
	<text x="373.0" y="329.0" fill="#b3b3b3" font-family="Nimbus Sans" font-size="12pt" text-anchor="middle">50</text>
	<text x="523.0" y="329.0" fill="#b3b3b3" font-family="Nimbus Sans" font-size="12pt" text-anchor="middle">75</text>
	<text x="673.0" y="329.0" fill="#b3b3b3" font-family="Nimbus Sans" font-size="12pt" text-anchor="middle">100</text>
	<text x="63.0" y="8.0" fill="#b3b3b3" font-family="Nimbus Sans" font-size="12pt" text-anchor="end">0.539</text>
	<text x="63.0" y="83.0" fill="#b3b3b3" font-family="Nimbus Sans" font-size="12pt" text-anchor="end">0.406</text>
	<text x="63.0" y="158.0" fill="#b3b3b3" font-family="Nimbus Sans" font-size="12pt" text-anchor="end">0.272</text>
	<text x="63.0" y="233.0" fill="#b3b3b3" font-family="Nimbus Sans" font-size="12pt" text-anchor="end">0.139</text>
	<text x="63.0" y="308.0" fill="#b3b3b3" font-family="Nimbus Sans" font-size="12pt" text-anchor="end">0.00542</text>
</svg>
