<?xml version="1.0" encoding="UTF-8" standalone="no"?>
<!DOCTYPE svg PUBLIC "-//W3C//DTD SVG 1.1//EN" "http://www.w3.org/Graphics/SVG/1.1/DTD/svg11.dtd">
<svg xmlns="http://www.w3.org/2000/svg"  version="1.1" width="696.0" height="389.0" viewBox="-6.0 -13.0 690.0 376.0">
	<desc>LSD Plot - Sim1</desc>
	<polyline points="205.0,6.0 205.0,304.0" fill="none" stroke="#33393b" />
	<polyline points="355.0,6.0 355.0,304.0" fill="none" stroke="#33393b" />
	<polyline points="505.0,6.0 505.0,304.0" fill="none" stroke="#33393b" />
	<polyline points="56.0,80.0 654.0,80.0" fill="none" stroke="#33393b" />
	<polyline points="56.0,155.0 654.0,155.0" fill="none" stroke="#33393b" />
	<polyline points="56.0,230.0 654.0,230.0" fill="none" stroke="#33393b" />
	<text x="5.0" y="351.0" font-family="Nimbus Sans" font-size="12pt">a_1_1</text>
	<text x="55.0" y="351.0" fill="#ff6347" font-family="Nimbus Sans" font-size="12pt">a_1_2</text>
	<text x="105.0" y="351.0" fill="#008000" font-family="Nimbus Sans" font-size="12pt">a_1_3</text>
	<text x="155.0" y="351.0" fill="#eeee00" font-family="Nimbus Sans" font-size="12pt">a_1_4</text>
	<text x="205.0" y="351.0" fill="#ffc0cb" font-family="Nimbus Sans" font-size="12pt">a_1_5</text>
	<text x="255.0" y="351.0" fill="#4682b4" font-family="Nimbus Sans" font-size="12pt">a_1_6</text>
	<text x="305.0" y="351.0" fill="#00bfff" font-family="Nimbus Sans" font-size="12pt">a_1_7</text>
	<text x="355.0" y="351.0" fill="#4876ff" font-family="Nimbus Sans" font-size="12pt">a_1_8</text>
	<text x="405.0" y="351.0" fill="#aeeeee" font-family="Nimbus Sans" font-size="12pt">a_1_9</text>
	<text x="455.0" y="351.0" fill="#00ffff" font-family="Nimbus Sans" font-size="12pt">a_1_10</text>
	<polyline points="55.0,305.0 61.0,304.0 67.0,302.0 73.0,300.0 79.0,299.0 85.0,298.0 91.0,298.0 97.0,294.0 103.0,293.0 109.0,292.0 115.0,290.0 121.0,289.0 127.0,289.0 133.0,288.0 139.0,286.0 145.0,260.0 151.0,255.0 158.0,254.0 164.0,254.0 170.0,253.0 176.0,251.0 182.0,250.0 188.0,243.0 194.0,237.0 200.0,234.0 206.0,230.0 212.0,227.0 218.0,225.0 224.0,223.0 230.0,220.0 236.0,220.0 242.0,219.0 248.0,213.0 255.0,211.0 261.0,211.0 267.0,210.0 273.0,206.0 279.0,196.0 285.0,191.0 291.0,189.0 297.0,187.0 303.0,184.0 309.0,178.0 315.0,176.0 321.0,175.0 327.0,175.0 333.0,175.0 339.0,173.0 345.0,171.0 351.0,169.0 358.0,167.0 364.0,167.0 370.0,164.0 376.0,149.0 382.0,147.0 388.0,146.0 394.0,145.0 400.0,141.0 406.0,136.0 412.0,133.0 418.0,125.0 424.0,124.0 430.0,121.0 436.0,116.0 442.0,109.0 448.0,109.0 455.0,105.0 461.0,105.0 467.0,102.0 473.0,101.0 479.0,101.0 485.0,99.0 491.0,96.0 497.0,87.0 503.0,85.0 509.0,84.0 515.0,79.0 521.0,74.0 527.0,72.0 533.0,72.0 539.0,70.0 545.0,64.0 551.0,63.0 558.0,58.0 564.0,55.0 570.0,54.0 576.0,53.0 582.0,51.0 588.0,40.0 594.0,37.0 600.0,36.0 606.0,34.0 612.0,34.0 618.0,32.0 624.0,31.0 630.0,25.0 636.0,23.0 642.0,21.0 648.0,19.0 654.0,17.0" fill="none" stroke="#000000" />
	<polyline points="55.0,305.0 61.0,302.0 67.0,302.0 73.0,302.0 79.0,298.0 85.0,298.0 91.0,296.0 97.0,292.0 103.0,289.0 109.0,284.0 115.0,280.0 121.0,278.0 127.0,275.0 133.0,274.0 139.0,273.0 145.0,272.0 151.0,269.0 158.0,269.0 164.0,267.0 170.0,249.0 176.0,242.0 182.0,239.0 188.0,235.0 194.0,235.0 200.0,230.0 206.0,224.0 212.0,221.0 218.0,216.0 224.0,213.0 230.0,208.0 236.0,207.0 242.0,207.0 248.0,206.0 255.0,205.0 261.0,203.0 267.0,199.0 273.0,195.0 279.0,193.0 285.0,192.0 291.0,191.0 297.0,189.0 303.0,188.0 309.0,188.0 315.0,185.0 321.0,185.0 327.0,182.0 333.0,177.0 339.0,174.0 345.0,174.0 351.0,173.0 358.0,168.0 364.0,168.0 370.0,168.0 376.0,164.0 382.0,142.0 388.0,138.0 394.0,134.0 400.0,134.0 406.0,133.0 412.0,126.0 418.0,126.0 424.0,125.0 430.0,123.0 436.0,121.0 442.0,117.0 448.0,114.0 455.0,113.0 461.0,111.0 467.0,109.0 473.0,107.0 479.0,107.0 485.0,105.0 491.0,92.0 497.0,90.0 503.0,89.0 509.0,87.0 515.0,86.0 521.0,84.0 527.0,82.0 533.0,77.0 539.0,75.0 545.0,74.0 551.0,70.0 558.0,69.0 564.0,49.0 570.0,45.0 576.0,44.0 582.0,41.0 588.0,35.0 594.0,31.0 600.0,26.0 606.0,25.0 612.0,25.0 618.0,23.0 624.0,19.0 630.0,18.0 636.0,13.0 642.0,12.0 648.0,10.0 654.0,8.0" fill="none" stroke="#ff6347" />
	<polyline points="55.0,305.0 61.0,304.0 67.0,304.0 73.0,303.0 79.0,302.0 85.0,301.0 91.0,301.0 97.0,299.0 103.0,297.0 109.0,292.0 115.0,287.0 121.0,286.0 127.0,284.0 133.0,283.0 139.0,283.0 145.0,262.0 151.0,258.0 158.0,255.0 164.0,255.0 170.0,254.0 176.0,246.0 182.0,242.0 188.0,239.0 194.0,236.0 200.0,235.0 206.0,232.0 212.0,227.0 218.0,220.0 224.0,219.0 230.0,218.0 236.0,214.0 242.0,214.0 248.0,212.0 255.0,212.0 261.0,211.0 267.0,209.0 273.0,207.0 279.0,204.0 285.0,200.0 291.0,198.0 297.0,197.0 303.0,185.0 309.0,183.0 315.0,179.0 321.0,178.0 327.0,175.0 333.0,172.0 339.0,167.0 345.0,166.0 351.0,164.0 358.0,164.0 364.0,162.0 370.0,161.0 376.0,159.0 382.0,156.0 388.0,141.0 394.0,140.0 400.0,135.0 406.0,132.0 412.0,127.0 418.0,121.0 424.0,120.0 430.0,119.0 436.0,117.0 442.0,112.0 448.0,111.0 455.0,110.0 461.0,109.0 467.0,102.0 473.0,98.0 479.0,98.0 485.0,90.0 491.0,87.0 497.0,85.0 503.0,81.0 509.0,78.0 515.0,74.0 521.0,67.0 527.0,65.0 533.0,63.0 539.0,62.0 545.0,61.0 551.0,59.0 558.0,55.0 564.0,54.0 570.0,54.0 576.0,51.0 582.0,50.0 588.0,49.0 594.0,48.0 600.0,47.0 606.0,45.0 612.0,38.0 618.0,37.0 624.0,25.0 630.0,22.0 636.0,20.0 642.0,19.0 648.0,15.0 654.0,14.0" fill="none" stroke="#008000" />
	<polyline points="55.0,305.0 61.0,300.0 67.0,298.0 73.0,297.0 79.0,297.0 85.0,294.0 91.0,287.0 97.0,284.0 103.0,283.0 109.0,280.0 115.0,280.0 121.0,279.0 127.0,278.0 133.0,277.0 139.0,276.0 145.0,274.0 151.0,269.0 158.0,263.0 164.0,258.0 170.0,257.0 176.0,256.0 182.0,244.0 188.0,239.0 194.0,239.0 200.0,238.0 206.0,237.0 212.0,235.0 218.0,233.0 224.0,233.0 230.0,227.0 236.0,227.0 242.0,226.0 248.0,224.0 255.0,222.0 261.0,220.0 267.0,220.0 273.0,201.0 279.0,201.0 285.0,195.0 291.0,195.0 297.0,192.0 303.0,189.0 309.0,180.0 315.0,174.0 321.0,172.0 327.0,169.0 333.0,168.0 339.0,168.0 345.0,167.0 351.0,166.0 358.0,166.0 364.0,163.0 370.0,163.0 376.0,160.0 382.0,144.0 388.0,143.0 394.0,137.0 400.0,136.0 406.0,133.0 412.0,133.0 418.0,133.0 424.0,132.0 430.0,128.0 436.0,127.0 442.0,124.0 448.0,123.0 455.0,122.0 461.0,105.0 467.0,103.0 473.0,102.0 479.0,99.0 485.0,99.0 491.0,94.0 497.0,90.0 503.0,88.0 509.0,86.0 515.0,85.0 521.0,83.0 527.0,77.0 533.0,77.0 539.0,75.0 545.0,74.0 551.0,71.0 558.0,69.0 564.0,51.0 570.0,50.0 576.0,47.0 582.0,45.0 588.0,44.0 594.0,44.0 600.0,42.0 606.0,42.0 612.0,41.0 618.0,37.0 624.0,33.0 630.0,32.0 636.0,27.0 642.0,27.0 648.0,25.0 654.0,22.0" fill="none" stroke="#eeee00" />
	<polyline points="55.0,305.0 61.0,299.0 67.0,295.0 73.0,292.0 79.0,290.0 85.0,290.0 91.0,289.0 97.0,284.0 103.0,283.0 109.0,280.0 115.0,279.0 121.0,277.0 127.0,269.0 133.0,265.0 139.0,263.0 145.0,258.0 151.0,256.0 158.0,255.0 164.0,252.0 170.0,251.0 176.0,249.0 182.0,245.0 188.0,238.0 194.0,237.0 200.0,235.0 206.0,233.0 212.0,229.0 218.0,229.0 224.0,225.0 230.0,222.0 236.0,219.0 242.0,219.0 248.0,218.0 255.0,216.0 261.0,212.0 267.0,208.0 273.0,205.0 279.0,204.0 285.0,202.0 291.0,202.0 297.0,201.0 303.0,189.0 309.0,185.0 315.0,184.0 321.0,183.0 327.0,181.0 333.0,177.0 339.0,176.0 345.0,174.0 351.0,174.0 358.0,173.0 364.0,167.0 370.0,165.0 376.0,149.0 382.0,143.0 388.0,143.0 394.0,140.0 400.0,139.0 406.0,134.0 412.0,133.0 418.0,133.0 424.0,129.0 430.0,127.0 436.0,126.0 442.0,126.0 448.0,108.0 455.0,102.0 461.0,100.0 467.0,98.0 473.0,97.0 479.0,95.0 485.0,89.0 491.0,89.0 497.0,87.0 503.0,85.0 509.0,82.0 515.0,75.0 521.0,73.0 527.0,73.0 533.0,70.0 539.0,68.0 545.0,68.0 551.0,68.0 558.0,64.0 564.0,64.0 570.0,63.0 576.0,58.0 582.0,58.0 588.0,56.0 594.0,39.0 600.0,35.0 606.0,35.0 612.0,32.0 618.0,30.0 624.0,27.0 630.0,26.0 636.0,23.0 642.0,22.0 648.0,18.0 654.0,12.0" fill="none" stroke="#ffc0cb" />
	<polyline points="55.0,305.0 61.0,302.0 67.0,298.0 73.0,296.0 79.0,295.0 85.0,293.0 91.0,291.0 97.0,289.0 103.0,288.0 109.0,288.0 115.0,284.0 121.0,281.0 127.0,279.0 133.0,279.0 139.0,278.0 145.0,276.0 151.0,269.0 158.0,263.0 164.0,262.0 170.0,260.0 176.0,245.0 182.0,243.0 188.0,243.0 194.0,240.0 200.0,239.0 206.0,237.0 212.0,233.0 218.0,230.0 224.0,227.0 230.0,226.0 236.0,224.0 242.0,219.0 248.0,217.0 255.0,216.0 261.0,213.0 267.0,213.0 273.0,211.0 279.0,209.0 285.0,205.0 291.0,192.0 297.0,191.0 303.0,187.0 309.0,185.0 315.0,181.0 321.0,178.0 327.0,176.0 333.0,174.0 339.0,170.0 345.0,169.0 351.0,165.0 358.0,161.0 364.0,160.0 370.0,160.0 376.0,156.0 382.0,138.0 388.0,135.0 394.0,131.0 400.0,130.0 406.0,127.0 412.0,124.0 418.0,123.0 424.0,120.0 430.0,118.0 436.0,115.0 442.0,113.0 448.0,111.0 455.0,110.0 461.0,109.0 467.0,105.0 473.0,103.0 479.0,97.0 485.0,95.0 491.0,94.0 497.0,94.0 503.0,92.0 509.0,92.0 515.0,88.0 521.0,83.0 527.0,83.0 533.0,80.0 539.0,79.0 545.0,76.0 551.0,75.0 558.0,56.0 564.0,55.0 570.0,55.0 576.0,53.0 582.0,50.0 588.0,50.0 594.0,49.0 600.0,42.0 606.0,40.0 612.0,39.0 618.0,38.0 624.0,34.0 630.0,23.0 636.0,20.0 642.0,20.0 648.0,18.0 654.0,16.0" fill="none" stroke="#4682b4" />
	<polyline points="55.0,305.0 61.0,304.0 67.0,302.0 73.0,301.0 79.0,298.0 85.0,296.0 91.0,292.0 97.0,290.0 103.0,288.0 109.0,288.0 115.0,288.0 121.0,287.0 127.0,284.0 133.0,278.0 139.0,276.0 145.0,273.0 151.0,272.0 158.0,254.0 164.0,253.0 170.0,253.0 176.0,252.0 182.0,252.0 188.0,248.0 194.0,245.0 200.0,240.0 206.0,239.0 212.0,237.0 218.0,236.0 224.0,233.0 230.0,233.0 236.0,232.0 242.0,216.0 248.0,213.0 255.0,210.0 261.0,207.0 267.0,207.0 273.0,207.0 279.0,201.0 285.0,200.0 291.0,198.0 297.0,197.0 303.0,196.0 309.0,195.0 315.0,179.0 321.0,176.0 327.0,173.0 333.0,168.0 339.0,162.0 345.0,158.0 351.0,158.0 358.0,157.0 364.0,154.0 370.0,153.0 376.0,146.0 382.0,144.0 388.0,144.0 394.0,141.0 400.0,141.0 406.0,138.0 412.0,137.0 418.0,136.0 424.0,135.0 430.0,133.0 436.0,130.0 442.0,129.0 448.0,128.0 455.0,108.0 461.0,106.0 467.0,103.0 473.0,103.0 479.0,102.0 485.0,100.0 491.0,98.0 497.0,98.0 503.0,98.0 509.0,94.0 515.0,87.0 521.0,87.0 527.0,85.0 533.0,84.0 539.0,81.0 545.0,81.0 551.0,61.0 558.0,57.0 564.0,53.0 570.0,52.0 576.0,48.0 582.0,45.0 588.0,41.0 594.0,40.0 600.0,38.0 606.0,37.0 612.0,35.0 618.0,33.0 624.0,32.0 630.0,27.0 636.0,23.0 642.0,21.0 648.0,21.0 654.0,19.0" fill="none" stroke="#00bfff" />
	<polyline points="55.0,305.0 61.0,304.0 67.0,304.0 73.0,298.0 79.0,294.0 85.0,293.0 91.0,293.0 97.0,292.0 103.0,288.0 109.0,287.0 115.0,283.0 121.0,280.0 127.0,278.0 133.0,273.0 139.0,271.0 145.0,270.0 151.0,268.0 158.0,268.0 164.0,264.0 170.0,261.0 176.0,246.0 182.0,245.0 188.0,240.0 194.0,236.0 200.0,233.0 206.0,230.0 212.0,227.0 218.0,226.0 224.0,226.0 230.0,224.0 236.0,223.0 242.0,223.0 248.0,221.0 255.0,220.0 261.0,219.0 267.0,215.0 273.0,213.0 279.0,207.0 285.0,205.0 291.0,202.0 297.0,200.0 303.0,187.0 309.0,181.0 315.0,180.0 321.0,179.0 327.0,178.0 333.0,171.0 339.0,169.0 345.0,166.0 351.0,160.0 358.0,155.0 364.0,149.0 370.0,148.0 376.0,147.0 382.0,147.0 388.0,145.0 394.0,144.0 400.0,137.0 406.0,137.0 412.0,136.0 418.0,131.0 424.0,128.0 430.0,127.0 436.0,125.0 442.0,124.0 448.0,118.0 455.0,108.0 461.0,108.0 467.0,108.0 473.0,105.0 479.0,103.0 485.0,101.0 491.0,99.0 497.0,97.0 503.0,92.0 509.0,92.0 515.0,91.0 521.0,91.0 527.0,86.0 533.0,82.0 539.0,82.0 545.0,80.0 551.0,58.0 558.0,55.0 564.0,52.0 570.0,46.0 576.0,43.0 582.0,41.0 588.0,38.0 594.0,37.0 600.0,37.0 606.0,35.0 612.0,29.0 618.0,27.0 624.0,23.0 630.0,17.0 636.0,15.0 642.0,15.0 648.0,15.0 654.0,14.0" fill="none" stroke="#4876ff" />
	<polyline points="55.0,305.0 61.0,301.0 67.0,298.0 73.0,293.0 79.0,293.0 85.0,293.0 91.0,292.0 97.0,284.0 103.0,284.0 109.0,282.0 115.0,281.0 121.0,281.0 127.0,279.0 133.0,278.0 139.0,277.0 145.0,276.0 151.0,274.0 158.0,274.0 164.0,267.0 170.0,265.0 176.0,246.0 182.0,243.0 188.0,242.0 194.0,241.0 200.0,240.0 206.0,238.0 212.0,234.0 218.0,231.0 224.0,224.0 230.0,224.0 236.0,220.0 242.0,219.0 248.0,218.0 255.0,217.0 261.0,211.0 267.0,208.0 273.0,207.0 279.0,206.0 285.0,205.0 291.0,202.0 297.0,194.0 303.0,194.0 309.0,185.0 315.0,178.0 321.0,178.0 327.0,177.0 333.0,175.0 339.0,171.0 345.0,169.0 351.0,167.0 358.0,165.0 364.0,161.0 370.0,160.0 376.0,156.0 382.0,155.0 388.0,155.0 394.0,153.0 400.0,151.0 406.0,130.0 412.0,130.0 418.0,128.0 424.0,125.0 430.0,122.0 436.0,121.0 442.0,119.0 448.0,114.0 455.0,113.0 461.0,111.0 467.0,109.0 473.0,107.0 479.0,101.0 485.0,101.0 491.0,98.0 497.0,98.0 503.0,97.0 509.0,96.0 515.0,92.0 521.0,88.0 527.0,86.0 533.0,85.0 539.0,85.0 545.0,62.0 551.0,57.0 558.0,57.0 564.0,53.0 570.0,53.0 576.0,49.0 582.0,46.0 588.0,42.0 594.0,39.0 600.0,37.0 606.0,34.0 612.0,29.0 618.0,28.0 624.0,27.0 630.0,27.0 636.0,26.0 642.0,23.0 648.0,22.0 654.0,20.0" fill="none" stroke="#aeeeee" />
	<polyline points="55.0,305.0 61.0,304.0 67.0,303.0 73.0,302.0 79.0,301.0 85.0,301.0 91.0,300.0 97.0,299.0 103.0,296.0 109.0,288.0 115.0,287.0 121.0,287.0 127.0,287.0 133.0,285.0 139.0,285.0 145.0,264.0 151.0,260.0 158.0,257.0 164.0,251.0 170.0,249.0 176.0,245.0 182.0,245.0 188.0,242.0 194.0,236.0 200.0,233.0 206.0,233.0 212.0,229.0 218.0,228.0 224.0,226.0 230.0,224.0 236.0,224.0 242.0,220.0 248.0,219.0 255.0,219.0 261.0,217.0 267.0,215.0 273.0,214.0 279.0,212.0 285.0,212.0 291.0,209.0 297.0,191.0 303.0,189.0 309.0,189.0 315.0,188.0 321.0,186.0 327.0,185.0 333.0,185.0 339.0,183.0 345.0,179.0 351.0,177.0 358.0,176.0 364.0,174.0 370.0,169.0 376.0,149.0 382.0,146.0 388.0,141.0 394.0,140.0 400.0,131.0 406.0,130.0 412.0,126.0 418.0,124.0 424.0,123.0 430.0,119.0 436.0,117.0 442.0,117.0 448.0,113.0 455.0,112.0 461.0,107.0 467.0,105.0 473.0,104.0 479.0,101.0 485.0,99.0 491.0,96.0 497.0,94.0 503.0,92.0 509.0,91.0 515.0,90.0 521.0,86.0 527.0,84.0 533.0,82.0 539.0,81.0 545.0,76.0 551.0,69.0 558.0,52.0 564.0,48.0 570.0,48.0 576.0,47.0 582.0,43.0 588.0,41.0 594.0,39.0 600.0,37.0 606.0,36.0 612.0,34.0 618.0,33.0 624.0,30.0 630.0,28.0 636.0,23.0 642.0,23.0 648.0,21.0 654.0,20.0" fill="none" stroke="#00ffff" />
	<polyline points="55.0,5.0 655.0,5.0" fill="none" stroke="#b3b3b3" />
	<polyline points="55.0,305.0 655.0,305.0" fill="none" stroke="#b3b3b3" />
	<polyline points="55.0,305.0 55.0,310.0" fill="none" stroke="#b3b3b3" />
	<polyline points="205.0,305.0 205.0,310.0" fill="none" stroke="#b3b3b3" />
	<polyline points="355.0,305.0 355.0,310.0" fill="none" stroke="#b3b3b3" />
	<polyline points="505.0,305.0 505.0,310.0" fill="none" stroke="#b3b3b3" />
	<polyline points="655.0,305.0 655.0,310.0" fill="none" stroke="#b3b3b3" />
	<polyline points="55.0,5.0 55.0,305.0" fill="none" stroke="#b3b3b3" />
	<polyline points="655.0,5.0 655.0,305.0" fill="none" stroke="#b3b3b3" />
	<polyline points="50.0,5.0 55.0,5.0" fill="none" stroke="#b3b3b3" />
	<polyline points="50.0,80.0 55.0,80.0" fill="none" stroke="#b3b3b3" />
	<polyline points="50.0,155.0 55.0,155.0" fill="none" stroke="#b3b3b3" />
	<polyline points="50.0,230.0 55.0,230.0" fill="none" stroke="#b3b3b3" />
	<polyline points="50.0,305.0 55.0,305.0" fill="none" stroke="#b3b3b3" />
	<text x="55.0" y="329.0" fill="#b3b3b3" font-family="Nimbus Sans" font-size="12pt" text-anchor="middle">1</text>
	<text x="205.0" y="329.0" fill="#b3b3b3" font-family="Nimbus Sans" font-size="12pt" text-anchor="middle">25</text>
	<text x="355.0" y="329.0" fill="#b3b3b3" font-family="Nimbus Sans" font-size="12pt" text-anchor="middle">50</text>
	<text x="505.0" y="329.0" fill="#b3b3b3" font-family="Nimbus Sans" font-size="12pt" text-anchor="middle">75</text>
	<text x="655.0" y="329.0" fill="#b3b3b3" font-family="Nimbus Sans" font-size="12pt" text-anchor="middle">100</text>
	<text x="45.0" y="8.0" fill="#b3b3b3" font-family="Nimbus Sans" font-size="12pt" text-anchor="end">6.31</text>
	<text x="45.0" y="83.0" fill="#b3b3b3" font-family="Nimbus Sans" font-size="12pt" text-anchor="end">4.73</text>
	<text x="45.0" y="158.0" fill="#b3b3b3" font-family="Nimbus Sans" font-size="12pt" text-anchor="end">3.15</text>
	<text x="45.0" y="233.0" fill="#b3b3b3" font-family="Nimbus Sans" font-size="12pt" text-anchor="end">1.57</text>
	<text x="45.0" y="308.0" fill="#b3b3b3" font-family="Nimbus Sans" font-size="12pt" text-anchor="end">0</text>
</svg>
