<?xml version="1.0" encoding="UTF-8" standalone="no"?>
<!DOCTYPE svg PUBLIC "-//W3C//DTD SVG 1.1//EN" "http://www.w3.org/Graphics/SVG/1.1/DTD/svg11.dtd">
<svg xmlns="http://www.w3.org/2000/svg"  version="1.1" width="705.0" height="389.0" viewBox="-6.0 -13.0 699.0 376.0">
	<desc>LSD Plot - Sim1</desc>
	<polyline points="214.0,6.0 214.0,304.0" fill="none" stroke="#33393b" />
	<polyline points="364.0,6.0 364.0,304.0" fill="none" stroke="#33393b" />
	<polyline points="514.0,6.0 514.0,304.0" fill="none" stroke="#33393b" />
	<polyline points="65.0,80.0 663.0,80.0" fill="none" stroke="#33393b" />
	<polyline points="65.0,155.0 663.0,155.0" fill="none" stroke="#33393b" />
	<polyline points="65.0,230.0 663.0,230.0" fill="none" stroke="#33393b" />
	<text x="5.0" y="351.0" font-family="Nimbus Sans" font-size="12pt">aAvg_1</text>
	<polyline points="70.0,305.0 76.0,303.0 82.0,301.0 88.0,299.0 94.0,297.0 100.0,295.0 106.0,291.0 112.0,289.0 118.0,286.0 124.0,284.0 130.0,282.0 136.0,278.0 142.0,275.0 148.0,272.0 154.0,268.0 160.0,262.0 167.0,259.0 173.0,255.0 179.0,253.0 185.0,249.0 191.0,246.0 197.0,242.0 203.0,239.0 209.0,237.0 215.0,235.0 221.0,231.0 227.0,228.0 233.0,225.0 239.0,221.0 245.0,219.0 251.0,217.0 257.0,214.0 264.0,212.0 270.0,208.0 276.0,205.0 282.0,201.0 288.0,198.0 294.0,195.0 300.0,193.0 306.0,190.0 312.0,189.0 318.0,185.0 324.0,181.0 330.0,179.0 336.0,177.0 342.0,173.0 348.0,168.0 354.0,165.0 360.0,162.0 367.0,159.0 373.0,155.0 379.0,153.0 385.0,148.0 391.0,145.0 397.0,140.0 403.0,137.0 409.0,133.0 415.0,130.0 421.0,127.0 427.0,125.0 433.0,122.0 439.0,119.0 445.0,116.0 451.0,114.0 457.0,111.0 464.0,107.0 470.0,104.0 476.0,102.0 482.0,100.0 488.0,97.0 494.0,94.0 500.0,92.0 506.0,88.0 512.0,86.0 518.0,83.0 524.0,79.0 530.0,74.0 536.0,71.0 542.0,68.0 548.0,65.0 554.0,64.0 560.0,58.0 567.0,54.0 573.0,48.0 579.0,46.0 585.0,43.0 591.0,40.0 597.0,37.0 603.0,35.0 609.0,31.0 615.0,30.0 621.0,27.0 627.0,25.0 633.0,22.0 639.0,18.0 645.0,14.0 651.0,13.0 657.0,10.0 663.0,8.0" fill="none" stroke="#000000" />
	<polyline points="64.0,5.0 664.0,5.0" fill="none" stroke="#b3b3b3" />
	<polyline points="64.0,305.0 664.0,305.0" fill="none" stroke="#b3b3b3" />
	<polyline points="64.0,305.0 64.0,310.0" fill="none" stroke="#b3b3b3" />
	<polyline points="214.0,305.0 214.0,310.0" fill="none" stroke="#b3b3b3" />
	<polyline points="364.0,305.0 364.0,310.0" fill="none" stroke="#b3b3b3" />
	<polyline points="514.0,305.0 514.0,310.0" fill="none" stroke="#b3b3b3" />
	<polyline points="664.0,305.0 664.0,310.0" fill="none" stroke="#b3b3b3" />
	<polyline points="64.0,5.0 64.0,305.0" fill="none" stroke="#b3b3b3" />
	<polyline points="664.0,5.0 664.0,305.0" fill="none" stroke="#b3b3b3" />
	<polyline points="59.0,5.0 64.0,5.0" fill="none" stroke="#b3b3b3" />
	<polyline points="59.0,80.0 64.0,80.0" fill="none" stroke="#b3b3b3" />
	<polyline points="59.0,155.0 64.0,155.0" fill="none" stroke="#b3b3b3" />
	<polyline points="59.0,230.0 64.0,230.0" fill="none" stroke="#b3b3b3" />
	<polyline points="59.0,305.0 64.0,305.0" fill="none" stroke="#b3b3b3" />
	<text x="64.0" y="329.0" fill="#b3b3b3" font-family="Nimbus Sans" font-size="12pt" text-anchor="middle">1</text>
	<text x="214.0" y="329.0" fill="#b3b3b3" font-family="Nimbus Sans" font-size="12pt" text-anchor="middle">25</text>
	<text x="364.0" y="329.0" fill="#b3b3b3" font-family="Nimbus Sans" font-size="12pt" text-anchor="middle">50</text>
	<text x="514.0" y="329.0" fill="#b3b3b3" font-family="Nimbus Sans" font-size="12pt" text-anchor="middle">75</text>
	<text x="664.0" y="329.0" fill="#b3b3b3" font-family="Nimbus Sans" font-size="12pt" text-anchor="middle">100</text>
	<text x="54.0" y="8.0" fill="#b3b3b3" font-family="Nimbus Sans" font-size="12pt" text-anchor="end">6.2</text>
	<text x="54.0" y="83.0" fill="#b3b3b3" font-family="Nimbus Sans" font-size="12pt" text-anchor="end">4.66</text>
	<text x="54.0" y="158.0" fill="#b3b3b3" font-family="Nimbus Sans" font-size="12pt" text-anchor="end">3.12</text>
	<text x="54.0" y="233.0" fill="#b3b3b3" font-family="Nimbus Sans" font-size="12pt" text-anchor="end">1.59</text>
	<text x="54.0" y="308.0" fill="#b3b3b3" font-family="Nimbus Sans" font-size="12pt" text-anchor="end">0</text>
</svg>
