<?xml version="1.0" encoding="UTF-8"?><svg id="Layer_2" xmlns="http://www.w3.org/2000/svg" viewBox="0 0 931.83 236.55"><defs><style>.cls-1{fill:#f81952;stroke-width:0px;}</style></defs><g id="Layer_1-2"><path class="cls-1" d="m518.96,234.75v-69.93h15.25v69.93h-15.25Z"/><path class="cls-1" d="m601.67,175.5v-10.69h15.25v10.69h-15.25Zm.7,59.25v-49.74l13.86-1.6v51.36h-13.86v-.03Z"/><path class="cls-1" d="m624.89,191.99v-7.89h8.7v-12.89l13.96-1.8v14.69h13.86v7.89h-13.86v42.76h-13.98v-42.76h-8.7.01Z"/><path class="cls-1" d="m667.45,175.5v-10.69h15.25v10.69h-15.25Zm.7,59.25v-49.74l13.86-1.6v51.36h-13.86v-.03Z"/><path class="cls-1" d="m732.83,234.75h-13.17v-9.29c-1.47,3.07-3.79,5.65-6.68,7.44-2.87,1.88-6.23,2.89-9.67,2.9-3.13.2-6.22-.84-8.58-2.9-2.06-1.96-3.18-4.7-3.09-7.54,0-6.46,4.62-11.55,13.86-15.28l14.07-5.8v-.9c-.33-5.93-4.45-8.89-12.37-8.89-5.13-.18-10.16,1.49-14.17,4.7.43-5.04,3.15-9.61,7.38-12.38,3.84-2.45,8.31-3.7,12.86-3.6,6.31,0,11.15,1.61,14.5,4.84,3.35,3.23,5.03,7.81,5.03,13.73v33.08l.03-.1Zm-20.94-8.79c2.81.04,5.56-.87,7.79-2.6v-11.3h-13.05c-1.4,1.88-2.17,4.15-2.19,6.5-.09,1.95.57,3.87,1.84,5.35,1.49,1.46,3.53,2.2,5.61,2.04Z"/><path class="cls-1" d="m738.43,191.99v-7.89h8.7v-12.89l13.96-1.8v14.69h13.86v7.89h-13.86v42.76h-13.98v-42.76h-8.7.01Z"/><path class="cls-1" d="m781.14,175.5v-10.69h15.25v10.69h-15.25Zm.7,59.25v-49.74l13.86-1.6v51.36h-13.86v-.03Z"/><path class="cls-1" d="m825.95,236.55l-23.64-52.45h15.56l11.86,27.48,12.57-27.48h9.38l-25.74,52.45Z"/><path class="cls-1" d="m896.33,201.48l-31.22,9.29c.82,4.11,3.14,7.76,6.53,10.24,3.11,2.2,6.82,3.37,10.63,3.35,6.05,0,10.74-1.67,14.07-5-.26,4.67-2.52,9-6.19,11.89-4.12,3.12-9.19,4.71-14.36,4.5-6.51.12-12.78-2.47-17.31-7.15-4.8-4.87-7.38-11.5-7.13-18.33-.24-7.12,2.24-14.07,6.93-19.43,4.39-5.06,10.81-7.9,17.5-7.74,6.52,0,11.59,1.73,15.21,5.19,3.4,2.98,5.38,7.27,5.44,11.79,0,.47-.02.94-.09,1.41Zm-22.04-11.48c-2.68.02-5.2,1.27-6.83,3.39-2.06,2.74-3.17,6.07-3.15,9.5h18.15c.2-4.47-.48-7.73-2.04-9.79-1.4-1.99-3.7-3.16-6.13-3.12h0Z"/><path class="cls-1" d="m586.36,187.49c-2.71-2.92-6.55-4.51-10.53-4.35-6.91,0-12.4,3.26-16.46,9.79v-9.5l-13.86,1.6v49.75h13.86v-39.76h0v-2.1h17.15v41.86h13.86v-34.47c0-5.62-1.33-9.89-4.03-12.82Z"/><path class="cls-1" d="m587.74,83.18c5.57-.19,11.07,1.33,15.76,4.35,4.21,2.82,6.8,7.48,6.97,12.54l-15.25,1.9c.2-3.03-.63-6.04-2.35-8.54-1.56-1.94-3.95-3.02-6.44-2.9-2.31-.08-4.55.81-6.18,2.45-1.59,1.61-2.45,3.79-2.39,6.05,0,4.73,3.33,8.59,9.98,11.6l7.98,3.49c10.84,4.73,16.25,11.35,16.25,19.88.04,5.91-2.55,11.54-7.08,15.34-4.73,4.23-10.85,6.35-18.36,6.35-6.09.21-12.11-1.43-17.26-4.7-4.66-3.13-7.25-7.83-7.79-14.09l15.95-2c-.2,3.49.73,6.96,2.64,9.89,1.84,2.44,4.78,3.79,7.83,3.6,2.65.11,5.25-.81,7.25-2.55,1.86-1.7,2.89-4.12,2.8-6.64.02-2.35-.83-4.63-2.39-6.39-2.2-2.29-4.85-4.09-7.79-5.29l-7.82-3.67c-10.37-4.59-15.56-11.22-15.56-19.88-.16-5.7,2.23-11.18,6.53-14.94,4.63-3.99,10.6-6.08,16.7-5.84Z"/><path class="cls-1" d="m661.1,119.64l-14.17,1.7v-2c.18-2.56-.49-5.11-1.9-7.25-1.24-1.65-3.22-2.59-5.29-2.49-2.88.01-5.55,1.5-7.08,3.94-2.02,3.2-3,6.96-2.8,10.74,0,6.39,1.73,11.27,5.19,14.63,3.34,3.31,7.87,5.13,12.57,5.05,4.8.07,9.45-1.72,12.96-5-.17,4.67-2.37,9.03-6.03,11.93-3.91,3.04-8.77,4.62-13.72,4.45-6.47.2-12.73-2.31-17.27-6.93-4.55-4.66-6.83-10.94-6.83-18.85-.21-7.03,2.31-13.87,7.03-19.08,4.48-5.04,10.96-7.86,17.7-7.7,5.01-.21,9.93,1.38,13.86,4.5,3.62,3.09,5.72,7.61,5.76,12.37Z"/><path class="cls-1" d="m746.59,155.4c-6.82.21-13.46-2.25-18.5-6.84-4.91-4.55-7.37-10.77-7.37-18.65-.17-7.15,2.48-14.08,7.38-19.29,4.91-5.26,11.86-8.14,19.05-7.89,6.77-.18,13.35,2.29,18.34,6.87,4.95,4.59,7.42,10.82,7.42,18.68.18,7.13-2.48,14.04-7.38,19.23-4.89,5.24-11.79,8.11-18.95,7.89Zm.7-7.09c3.07.03,5.93-1.56,7.53-4.19,1.93-2.79,2.9-6.89,2.9-12.28,0-6.86-1-12.24-2.99-16.14-1.99-3.9-4.79-5.83-8.38-5.8-3.06-.04-5.91,1.56-7.48,4.19-1.87,2.79-2.8,6.92-2.8,12.38,0,6.77.97,12.11,2.9,16.04,1.93,3.92,4.71,5.86,8.32,5.8Z"/><path class="cls-1" d="m780.62,154.42v-69.93l13.86-1.8v71.73h-13.86Z"/><path class="cls-1" d="m842.62,154.42h-13.15v-9.29c-1.47,3.07-3.79,5.65-6.68,7.44-2.87,1.88-6.23,2.89-9.67,2.9-3.13.2-6.2-.85-8.57-2.9-2.06-1.96-3.18-4.7-3.09-7.54,0-6.46,4.62-11.55,13.86-15.28l14.07-5.8v-.9c-.34-5.93-4.46-8.89-12.37-8.89-5.13-.18-10.16,1.49-14.17,4.7.43-5.04,3.15-9.61,7.38-12.38,3.84-2.45,8.31-3.7,12.86-3.6,6.31,0,11.15,1.61,14.5,4.84,3.35,3.23,5.03,7.81,5.03,13.73v33.08-.1Zm-20.94-8.79c2.82.02,5.57-.92,7.79-2.67v-11.3h-13.05c-1.4,1.88-2.16,4.15-2.19,6.5-.09,1.95.57,3.87,1.84,5.35,1.48,1.48,3.53,2.24,5.61,2.1h0Z"/><path class="cls-1" d="m884.95,103.26v13.89h-19.04v37.27h-13.86v-49.75l13.86-1.6v12.34c1.4-3.54,3.73-6.64,6.73-8.99,2.92-2.21,6.49-3.37,10.15-3.29.72-.03,1.45.02,2.16.13Z"/><path class="cls-1" d="m888.5,141.63l14.07-1.7v.9c-.05,2.14.74,4.22,2.19,5.8,1.58,1.65,3.81,2.52,6.09,2.39,1.95.08,3.85-.54,5.38-1.75,1.32-1.01,2.09-2.58,2.09-4.25,0-3.26-2.42-5.72-7.25-7.4l-6.68-2.29c-8.91-3.06-13.37-7.93-13.37-14.59-.05-4.49,2.05-8.74,5.64-11.44,3.76-3.03,8.73-4.54,14.91-4.54,4.64-.14,9.23,1.06,13.21,3.45,3.5,2.1,5.75,5.77,6.03,9.85l-13.86,1.6v-.9c0-5.07-2.32-7.6-6.97-7.6-1.67-.04-3.3.53-4.58,1.6-1.22.97-1.92,2.45-1.9,4,0,3.13,2.56,5.5,7.69,7.09l6.79,2.2c3.85,1.08,7.41,3.01,10.43,5.64,2.34,2.34,3.58,5.55,3.44,8.85.08,4.85-2.26,9.42-6.24,12.19-4.16,3.13-9.59,4.7-16.31,4.7-4.99.15-9.93-1.05-14.31-3.45-3.79-2.11-6.23-6.02-6.45-10.35Z"/><polygon class="cls-1" points="668.59 84.47 668.59 154.4 682.45 154.4 682.45 141.95 682.45 141.95 682.45 112.54 682.45 112.54 682.45 82.67 668.59 84.47"/><path class="cls-1" d="m709.42,107.15c-2.71-2.92-6.55-4.51-10.53-4.35-6.91,0-12.4,3.26-16.46,9.79h17.15v12.08h0v29.77h13.88v-34.47c0-5.61-1.35-9.88-4.05-12.82Z"/><path class="cls-1" d="m578.11,71.04c-6.82.21-13.46-2.25-18.5-6.84-4.95-4.56-7.42-10.77-7.42-18.63-.17-7.15,2.48-14.08,7.38-19.29,4.91-5.26,11.86-8.14,19.05-7.89,6.8-.19,13.4,2.28,18.4,6.89,4.95,4.59,7.42,10.82,7.42,18.68.18,7.14-2.47,14.07-7.38,19.26-4.9,5.22-11.8,8.07-18.95,7.83Zm.7-7.09c3.07.03,5.93-1.56,7.53-4.19,1.93-2.79,2.9-6.89,2.9-12.28,0-6.86-1-12.24-2.99-16.14-1.99-3.9-4.79-5.83-8.38-5.8-3.06-.04-5.91,1.56-7.48,4.19-1.87,2.79-2.8,6.92-2.8,12.38,0,6.77.97,12.11,2.9,16.04,1.93,3.92,4.71,5.86,8.32,5.8h0Z"/><path class="cls-1" d="m745.08,51.16c-2.43.02-4.86-.18-7.25-.59v5.5l19.44,2.29c10.37,1.13,15.56,5.48,15.56,13.05,0,5.13-2.58,9.2-7.73,12.19-5.15,3-11.89,4.5-20.2,4.5-7.85,0-14.13-.97-18.85-2.9-4.72-1.93-7.06-4.56-7.03-7.89,0-2.26,1.36-4.28,4.09-6.05,3.24-1.93,6.9-3.04,10.67-3.25-5.12-1.53-7.69-4.26-7.69-8.19-.02-2.29.85-4.49,2.44-6.15,1.97-1.94,4.51-3.19,7.25-3.55-8.04-2.19-12.06-7.09-12.06-14.69-.01-4.64,2.06-9.04,5.64-11.99,3.76-3.33,9.03-4.99,15.81-5,5.06-.17,10.07,1.03,14.5,3.49l16.36-3.49v9.4h-10.88c.94,1.96,1.44,4.11,1.45,6.29.08,4.7-1.97,9.18-5.58,12.19-3.77,3.23-9.08,4.84-15.94,4.84Zm-5.97,17.85c-.88,0-1.76-.13-2.6-.41-2.59.94-4.29,3.45-4.19,6.21,0,2.13,1.25,3.82,3.74,5.09,3.25,1.41,6.78,2.06,10.32,1.9,3.6.11,7.19-.47,10.57-1.7,2.79-1.13,4.19-2.63,4.19-4.5.04-1.38-.66-2.68-1.84-3.39-1.93-1-4.06-1.58-6.24-1.7l-13.96-1.51Zm5.99-44.56c-2.16-.05-4.22.94-5.54,2.65-1.49,1.96-2.25,4.38-2.15,6.84-.18,2.89.67,5.76,2.39,8.09,1.4,1.84,3.58,2.91,5.89,2.9,2.15.05,4.19-.94,5.48-2.65,1.45-1.94,2.19-4.32,2.09-6.74.17-2.9-.66-5.78-2.35-8.15-1.35-1.87-3.52-2.99-5.83-3v.06Z"/><polygon class="cls-1" points="552.33 .19 533.38 30.08 515.19 .19 496.88 .19 521.7 39.86 521.69 70.1 536.97 70.1 537 39.86 562.31 .19 552.33 .19"/><path class="cls-1" d="m709.76,22.78c-2.71-2.92-6.55-4.51-10.53-4.35-6.91,0-12.4,3.26-16.46,9.79v-9.5l-13.86,1.6v49.75h13.86V28.21h17.15v12.08h0v29.77h13.86v-34.47c0-5.6-1.34-9.87-4.03-12.8Z"/><path class="cls-1" d="m643.01,20.29v38.96h0v2.09h-16.66V18.69l-13.86,1.6v33.57c0,5.66,1.31,9.94,3.94,12.83,2.63,2.9,6.41,4.5,10.32,4.35,7.11,0,12.53-3.23,16.25-9.69v8.7h13.91V18.69l-13.91,1.6Z"/><circle class="cls-1" cx="524.63" cy="118.51" r="25.34"/><circle class="cls-1" cx="491.7" cy="151.98" r="14.4"/><path class="cls-1" d="m253.02,192.92h76.18v42.23h-2.12c-40.16,0-80.32,0-120.48.04-1.42,0-2.11-.47-2.82-1.64-26.38-43.67-52.8-87.31-79.21-130.96-.3-.5-.65-.97-1.3-1.36v133.81h-48.21V.04h1.96C91.84.04,106.65.06,121.47,0c1.42,0,2.16.46,2.89,1.65,26.13,43.03,52.29,86.04,78.45,129.06.44.72.9,1.43,1.7,2.08V.14h256.16v45.39h-56.36v189.51h-48.33V45.71h-102.94v36.12h71.38v42.25h-71.39v68.85Z"/><polygon class="cls-1" points="0 .19 0 235.07 48.08 235.07 48.08 81.47 24.45 81.47 24.45 45.2 48.07 45.2 48.07 .19 0 .19"/></g></svg>